<mxfile host="app.diagrams.net" agent="Mozilla/5.0 (Windows NT 10.0; Win64; x64) AppleWebKit/537.36 (KHTML, like Gecko) Chrome/132.0.0.0 Safari/537.36 Edg/132.0.0.0" version="26.0.11" pages="4">
  <diagram id="C5RBs43oDa-KdzZeNtuy" name="Page-1">
    <mxGraphModel dx="1572" dy="910" grid="1" gridSize="10" guides="1" tooltips="1" connect="1" arrows="1" fold="1" page="1" pageScale="1" pageWidth="827" pageHeight="1169" math="0" shadow="0">
      <root>
        <mxCell id="WIyWlLk6GJQsqaUBKTNV-0" />
        <mxCell id="WIyWlLk6GJQsqaUBKTNV-1" parent="WIyWlLk6GJQsqaUBKTNV-0" />
        <mxCell id="Iz3MCZ-JaH1TO4KO5p-t-6" value="" style="edgeStyle=orthogonalEdgeStyle;rounded=0;orthogonalLoop=1;jettySize=auto;html=1;" parent="WIyWlLk6GJQsqaUBKTNV-1" source="WIyWlLk6GJQsqaUBKTNV-3" target="Iz3MCZ-JaH1TO4KO5p-t-5" edge="1">
          <mxGeometry relative="1" as="geometry" />
        </mxCell>
        <mxCell id="WIyWlLk6GJQsqaUBKTNV-3" value="import Libraries" style="rounded=1;whiteSpace=wrap;html=1;fontSize=12;glass=0;strokeWidth=1;shadow=0;" parent="WIyWlLk6GJQsqaUBKTNV-1" vertex="1">
          <mxGeometry x="160" y="210" width="120" height="40" as="geometry" />
        </mxCell>
        <mxCell id="Iz3MCZ-JaH1TO4KO5p-t-16" value="" style="edgeStyle=orthogonalEdgeStyle;rounded=0;orthogonalLoop=1;jettySize=auto;html=1;exitX=0.5;exitY=1;exitDx=0;exitDy=0;exitPerimeter=0;" parent="WIyWlLk6GJQsqaUBKTNV-1" source="Iz3MCZ-JaH1TO4KO5p-t-0" target="Iz3MCZ-JaH1TO4KO5p-t-15" edge="1">
          <mxGeometry relative="1" as="geometry">
            <mxPoint x="414" y="120" as="sourcePoint" />
          </mxGeometry>
        </mxCell>
        <mxCell id="Iz3MCZ-JaH1TO4KO5p-t-0" value="Start" style="strokeWidth=2;html=1;shape=mxgraph.flowchart.start_1;whiteSpace=wrap;" parent="WIyWlLk6GJQsqaUBKTNV-1" vertex="1">
          <mxGeometry x="170" y="20" width="100" height="60" as="geometry" />
        </mxCell>
        <mxCell id="Iz3MCZ-JaH1TO4KO5p-t-19" value="" style="edgeStyle=orthogonalEdgeStyle;rounded=0;orthogonalLoop=1;jettySize=auto;html=1;" parent="WIyWlLk6GJQsqaUBKTNV-1" source="Iz3MCZ-JaH1TO4KO5p-t-5" target="Iz3MCZ-JaH1TO4KO5p-t-18" edge="1">
          <mxGeometry relative="1" as="geometry" />
        </mxCell>
        <mxCell id="Iz3MCZ-JaH1TO4KO5p-t-5" value="set up labels" style="whiteSpace=wrap;html=1;rounded=1;glass=0;strokeWidth=1;shadow=0;" parent="WIyWlLk6GJQsqaUBKTNV-1" vertex="1">
          <mxGeometry x="160" y="280" width="120" height="40" as="geometry" />
        </mxCell>
        <mxCell id="Iz3MCZ-JaH1TO4KO5p-t-17" style="edgeStyle=orthogonalEdgeStyle;rounded=0;orthogonalLoop=1;jettySize=auto;html=1;entryX=0.5;entryY=0;entryDx=0;entryDy=0;" parent="WIyWlLk6GJQsqaUBKTNV-1" source="Iz3MCZ-JaH1TO4KO5p-t-15" target="WIyWlLk6GJQsqaUBKTNV-3" edge="1">
          <mxGeometry relative="1" as="geometry" />
        </mxCell>
        <mxCell id="Iz3MCZ-JaH1TO4KO5p-t-15" value="set MQTT to either True or False&lt;br&gt;(set if using mqtt)" style="rounded=1;whiteSpace=wrap;html=1;strokeWidth=2;" parent="WIyWlLk6GJQsqaUBKTNV-1" vertex="1">
          <mxGeometry x="160" y="130" width="120" height="60" as="geometry" />
        </mxCell>
        <mxCell id="Iz3MCZ-JaH1TO4KO5p-t-21" value="yes" style="edgeStyle=orthogonalEdgeStyle;rounded=0;orthogonalLoop=1;jettySize=auto;html=1;" parent="WIyWlLk6GJQsqaUBKTNV-1" source="Iz3MCZ-JaH1TO4KO5p-t-18" target="Iz3MCZ-JaH1TO4KO5p-t-20" edge="1">
          <mxGeometry relative="1" as="geometry" />
        </mxCell>
        <mxCell id="Iz3MCZ-JaH1TO4KO5p-t-25" value="no" style="edgeStyle=orthogonalEdgeStyle;rounded=0;orthogonalLoop=1;jettySize=auto;html=1;" parent="WIyWlLk6GJQsqaUBKTNV-1" source="Iz3MCZ-JaH1TO4KO5p-t-18" target="Iz3MCZ-JaH1TO4KO5p-t-24" edge="1">
          <mxGeometry relative="1" as="geometry" />
        </mxCell>
        <mxCell id="Iz3MCZ-JaH1TO4KO5p-t-18" value="Is MQTT?" style="strokeWidth=2;html=1;shape=mxgraph.flowchart.decision;whiteSpace=wrap;" parent="WIyWlLk6GJQsqaUBKTNV-1" vertex="1">
          <mxGeometry x="170" y="360" width="100" height="100" as="geometry" />
        </mxCell>
        <mxCell id="Iz3MCZ-JaH1TO4KO5p-t-23" value="" style="edgeStyle=orthogonalEdgeStyle;rounded=0;orthogonalLoop=1;jettySize=auto;html=1;" parent="WIyWlLk6GJQsqaUBKTNV-1" source="Iz3MCZ-JaH1TO4KO5p-t-20" target="Iz3MCZ-JaH1TO4KO5p-t-22" edge="1">
          <mxGeometry relative="1" as="geometry" />
        </mxCell>
        <mxCell id="Iz3MCZ-JaH1TO4KO5p-t-20" value="Setup Wifi" style="rounded=1;whiteSpace=wrap;html=1;strokeWidth=2;" parent="WIyWlLk6GJQsqaUBKTNV-1" vertex="1">
          <mxGeometry x="340" y="380" width="120" height="60" as="geometry" />
        </mxCell>
        <mxCell id="Iz3MCZ-JaH1TO4KO5p-t-26" value="" style="edgeStyle=orthogonalEdgeStyle;rounded=0;orthogonalLoop=1;jettySize=auto;html=1;" parent="WIyWlLk6GJQsqaUBKTNV-1" source="Iz3MCZ-JaH1TO4KO5p-t-22" target="Iz3MCZ-JaH1TO4KO5p-t-24" edge="1">
          <mxGeometry relative="1" as="geometry" />
        </mxCell>
        <mxCell id="Iz3MCZ-JaH1TO4KO5p-t-22" value="Set up MQTT" style="rounded=1;whiteSpace=wrap;html=1;strokeWidth=2;" parent="WIyWlLk6GJQsqaUBKTNV-1" vertex="1">
          <mxGeometry x="340" y="520" width="120" height="60" as="geometry" />
        </mxCell>
        <mxCell id="Iz3MCZ-JaH1TO4KO5p-t-28" value="" style="edgeStyle=orthogonalEdgeStyle;rounded=0;orthogonalLoop=1;jettySize=auto;html=1;" parent="WIyWlLk6GJQsqaUBKTNV-1" source="Iz3MCZ-JaH1TO4KO5p-t-24" target="Iz3MCZ-JaH1TO4KO5p-t-27" edge="1">
          <mxGeometry relative="1" as="geometry" />
        </mxCell>
        <mxCell id="Iz3MCZ-JaH1TO4KO5p-t-24" value="Set up ESPNow" style="rounded=1;whiteSpace=wrap;html=1;strokeWidth=2;" parent="WIyWlLk6GJQsqaUBKTNV-1" vertex="1">
          <mxGeometry x="160" y="520" width="120" height="60" as="geometry" />
        </mxCell>
        <mxCell id="Iz3MCZ-JaH1TO4KO5p-t-30" value="" style="edgeStyle=orthogonalEdgeStyle;rounded=0;orthogonalLoop=1;jettySize=auto;html=1;" parent="WIyWlLk6GJQsqaUBKTNV-1" source="Iz3MCZ-JaH1TO4KO5p-t-27" target="Iz3MCZ-JaH1TO4KO5p-t-29" edge="1">
          <mxGeometry relative="1" as="geometry" />
        </mxCell>
        <mxCell id="Iz3MCZ-JaH1TO4KO5p-t-27" value="set up button callbacks" style="rounded=1;whiteSpace=wrap;html=1;strokeWidth=2;" parent="WIyWlLk6GJQsqaUBKTNV-1" vertex="1">
          <mxGeometry x="160" y="600" width="120" height="60" as="geometry" />
        </mxCell>
        <mxCell id="Iz3MCZ-JaH1TO4KO5p-t-32" value="" style="edgeStyle=orthogonalEdgeStyle;rounded=0;orthogonalLoop=1;jettySize=auto;html=1;" parent="WIyWlLk6GJQsqaUBKTNV-1" source="Iz3MCZ-JaH1TO4KO5p-t-29" target="Iz3MCZ-JaH1TO4KO5p-t-31" edge="1">
          <mxGeometry relative="1" as="geometry" />
        </mxCell>
        <mxCell id="Iz3MCZ-JaH1TO4KO5p-t-29" value="start timer0 loop" style="shape=process;whiteSpace=wrap;html=1;backgroundOutline=1;rounded=1;strokeWidth=2;" parent="WIyWlLk6GJQsqaUBKTNV-1" vertex="1">
          <mxGeometry x="160" y="680" width="120" height="60" as="geometry" />
        </mxCell>
        <mxCell id="Iz3MCZ-JaH1TO4KO5p-t-34" value="" style="edgeStyle=orthogonalEdgeStyle;rounded=0;orthogonalLoop=1;jettySize=auto;html=1;" parent="WIyWlLk6GJQsqaUBKTNV-1" source="Iz3MCZ-JaH1TO4KO5p-t-31" target="Iz3MCZ-JaH1TO4KO5p-t-33" edge="1">
          <mxGeometry relative="1" as="geometry" />
        </mxCell>
        <mxCell id="Iz3MCZ-JaH1TO4KO5p-t-31" value="init angle unit" style="rounded=1;whiteSpace=wrap;html=1;strokeWidth=2;" parent="WIyWlLk6GJQsqaUBKTNV-1" vertex="1">
          <mxGeometry x="160" y="760" width="120" height="60" as="geometry" />
        </mxCell>
        <mxCell id="Iz3MCZ-JaH1TO4KO5p-t-36" value="" style="edgeStyle=orthogonalEdgeStyle;rounded=0;orthogonalLoop=1;jettySize=auto;html=1;" parent="WIyWlLk6GJQsqaUBKTNV-1" source="Iz3MCZ-JaH1TO4KO5p-t-33" target="Iz3MCZ-JaH1TO4KO5p-t-35" edge="1">
          <mxGeometry relative="1" as="geometry" />
        </mxCell>
        <mxCell id="Iz3MCZ-JaH1TO4KO5p-t-33" value="set main display screen" style="whiteSpace=wrap;html=1;rounded=1;strokeWidth=2;" parent="WIyWlLk6GJQsqaUBKTNV-1" vertex="1">
          <mxGeometry x="160" y="840" width="120" height="60" as="geometry" />
        </mxCell>
        <mxCell id="Iz3MCZ-JaH1TO4KO5p-t-35" value="start main loop" style="shape=process;whiteSpace=wrap;html=1;backgroundOutline=1;rounded=1;strokeWidth=2;" parent="WIyWlLk6GJQsqaUBKTNV-1" vertex="1">
          <mxGeometry x="160" y="920" width="120" height="60" as="geometry" />
        </mxCell>
        <mxCell id="Iz3MCZ-JaH1TO4KO5p-t-42" value="" style="edgeStyle=orthogonalEdgeStyle;rounded=0;orthogonalLoop=1;jettySize=auto;html=1;" parent="WIyWlLk6GJQsqaUBKTNV-1" source="Iz3MCZ-JaH1TO4KO5p-t-38" target="Iz3MCZ-JaH1TO4KO5p-t-41" edge="1">
          <mxGeometry relative="1" as="geometry" />
        </mxCell>
        <mxCell id="Iz3MCZ-JaH1TO4KO5p-t-38" value="main loop" style="shape=process;whiteSpace=wrap;html=1;backgroundOutline=1;rounded=1;strokeWidth=2;" parent="WIyWlLk6GJQsqaUBKTNV-1" vertex="1">
          <mxGeometry x="660" y="20" width="120" height="60" as="geometry" />
        </mxCell>
        <mxCell id="Iz3MCZ-JaH1TO4KO5p-t-46" value="" style="edgeStyle=orthogonalEdgeStyle;rounded=0;orthogonalLoop=1;jettySize=auto;html=1;" parent="WIyWlLk6GJQsqaUBKTNV-1" source="Iz3MCZ-JaH1TO4KO5p-t-41" target="Iz3MCZ-JaH1TO4KO5p-t-45" edge="1">
          <mxGeometry relative="1" as="geometry" />
        </mxCell>
        <mxCell id="Iz3MCZ-JaH1TO4KO5p-t-41" value="update display" style="rounded=1;whiteSpace=wrap;html=1;strokeWidth=2;" parent="WIyWlLk6GJQsqaUBKTNV-1" vertex="1">
          <mxGeometry x="660" y="100" width="120" height="40" as="geometry" />
        </mxCell>
        <mxCell id="Iz3MCZ-JaH1TO4KO5p-t-48" value="" style="edgeStyle=orthogonalEdgeStyle;rounded=0;orthogonalLoop=1;jettySize=auto;html=1;" parent="WIyWlLk6GJQsqaUBKTNV-1" source="Iz3MCZ-JaH1TO4KO5p-t-45" target="Iz3MCZ-JaH1TO4KO5p-t-47" edge="1">
          <mxGeometry relative="1" as="geometry" />
        </mxCell>
        <mxCell id="Iz3MCZ-JaH1TO4KO5p-t-45" value="get angleInput" style="shape=parallelogram;perimeter=parallelogramPerimeter;whiteSpace=wrap;html=1;fixedSize=1;rounded=1;strokeWidth=2;" parent="WIyWlLk6GJQsqaUBKTNV-1" vertex="1">
          <mxGeometry x="660" y="170" width="120" height="60" as="geometry" />
        </mxCell>
        <mxCell id="Iz3MCZ-JaH1TO4KO5p-t-52" value="" style="edgeStyle=orthogonalEdgeStyle;rounded=0;orthogonalLoop=1;jettySize=auto;html=1;" parent="WIyWlLk6GJQsqaUBKTNV-1" source="Iz3MCZ-JaH1TO4KO5p-t-47" target="Iz3MCZ-JaH1TO4KO5p-t-51" edge="1">
          <mxGeometry relative="1" as="geometry" />
        </mxCell>
        <mxCell id="Iz3MCZ-JaH1TO4KO5p-t-47" value="&lt;div&gt;set global var angle to angleInput/364 &lt;br&gt;&lt;/div&gt;&lt;div&gt;normalise to range 0-180&lt;/div&gt;" style="whiteSpace=wrap;html=1;rounded=1;strokeWidth=2;" parent="WIyWlLk6GJQsqaUBKTNV-1" vertex="1">
          <mxGeometry x="660" y="250" width="120" height="60" as="geometry" />
        </mxCell>
        <mxCell id="Iz3MCZ-JaH1TO4KO5p-t-53" style="edgeStyle=orthogonalEdgeStyle;rounded=0;orthogonalLoop=1;jettySize=auto;html=1;entryX=1;entryY=0.5;entryDx=0;entryDy=0;" parent="WIyWlLk6GJQsqaUBKTNV-1" source="Iz3MCZ-JaH1TO4KO5p-t-51" target="Iz3MCZ-JaH1TO4KO5p-t-38" edge="1">
          <mxGeometry relative="1" as="geometry">
            <Array as="points">
              <mxPoint x="800" y="420" />
              <mxPoint x="800" y="50" />
            </Array>
          </mxGeometry>
        </mxCell>
        <mxCell id="Iz3MCZ-JaH1TO4KO5p-t-51" value="options" style="shape=process;whiteSpace=wrap;html=1;backgroundOutline=1;rounded=1;strokeWidth=2;" parent="WIyWlLk6GJQsqaUBKTNV-1" vertex="1">
          <mxGeometry x="660" y="390" width="120" height="60" as="geometry" />
        </mxCell>
        <mxCell id="Iz3MCZ-JaH1TO4KO5p-t-57" value="" style="edgeStyle=orthogonalEdgeStyle;rounded=0;orthogonalLoop=1;jettySize=auto;html=1;" parent="WIyWlLk6GJQsqaUBKTNV-1" source="Iz3MCZ-JaH1TO4KO5p-t-55" target="Iz3MCZ-JaH1TO4KO5p-t-56" edge="1">
          <mxGeometry relative="1" as="geometry" />
        </mxCell>
        <mxCell id="Iz3MCZ-JaH1TO4KO5p-t-55" value="timer0 loop" style="shape=process;whiteSpace=wrap;html=1;backgroundOutline=1;rounded=1;strokeWidth=2;" parent="WIyWlLk6GJQsqaUBKTNV-1" vertex="1">
          <mxGeometry x="660" y="520" width="120" height="60" as="geometry" />
        </mxCell>
        <mxCell id="Iz3MCZ-JaH1TO4KO5p-t-59" value="no" style="edgeStyle=orthogonalEdgeStyle;rounded=0;orthogonalLoop=1;jettySize=auto;html=1;" parent="WIyWlLk6GJQsqaUBKTNV-1" source="Iz3MCZ-JaH1TO4KO5p-t-56" target="Iz3MCZ-JaH1TO4KO5p-t-58" edge="1">
          <mxGeometry relative="1" as="geometry" />
        </mxCell>
        <mxCell id="Iz3MCZ-JaH1TO4KO5p-t-62" value="yes" style="edgeStyle=orthogonalEdgeStyle;rounded=0;orthogonalLoop=1;jettySize=auto;html=1;" parent="WIyWlLk6GJQsqaUBKTNV-1" source="Iz3MCZ-JaH1TO4KO5p-t-56" target="Iz3MCZ-JaH1TO4KO5p-t-61" edge="1">
          <mxGeometry relative="1" as="geometry" />
        </mxCell>
        <mxCell id="Iz3MCZ-JaH1TO4KO5p-t-56" value="is global var Clicked?" style="rhombus;whiteSpace=wrap;html=1;rounded=1;strokeWidth=2;" parent="WIyWlLk6GJQsqaUBKTNV-1" vertex="1">
          <mxGeometry x="645" y="610" width="150" height="130" as="geometry" />
        </mxCell>
        <mxCell id="Iz3MCZ-JaH1TO4KO5p-t-58" value="wait 100ms" style="whiteSpace=wrap;html=1;rounded=1;strokeWidth=2;" parent="WIyWlLk6GJQsqaUBKTNV-1" vertex="1">
          <mxGeometry x="660" y="770" width="120" height="60" as="geometry" />
        </mxCell>
        <mxCell id="Iz3MCZ-JaH1TO4KO5p-t-60" style="edgeStyle=orthogonalEdgeStyle;rounded=0;orthogonalLoop=1;jettySize=auto;html=1;entryX=0;entryY=0.5;entryDx=0;entryDy=0;" parent="WIyWlLk6GJQsqaUBKTNV-1" source="Iz3MCZ-JaH1TO4KO5p-t-58" target="Iz3MCZ-JaH1TO4KO5p-t-55" edge="1">
          <mxGeometry relative="1" as="geometry">
            <mxPoint x="640" y="490" as="targetPoint" />
            <Array as="points">
              <mxPoint x="620" y="800" />
              <mxPoint x="620" y="550" />
            </Array>
          </mxGeometry>
        </mxCell>
        <mxCell id="Iz3MCZ-JaH1TO4KO5p-t-66" value="" style="edgeStyle=orthogonalEdgeStyle;rounded=0;orthogonalLoop=1;jettySize=auto;html=1;" parent="WIyWlLk6GJQsqaUBKTNV-1" source="Iz3MCZ-JaH1TO4KO5p-t-61" target="Iz3MCZ-JaH1TO4KO5p-t-65" edge="1">
          <mxGeometry relative="1" as="geometry" />
        </mxCell>
        <mxCell id="Iz3MCZ-JaH1TO4KO5p-t-61" value="set Clicked to false" style="whiteSpace=wrap;html=1;rounded=1;strokeWidth=2;" parent="WIyWlLk6GJQsqaUBKTNV-1" vertex="1">
          <mxGeometry x="870" y="645" width="120" height="60" as="geometry" />
        </mxCell>
        <mxCell id="Iz3MCZ-JaH1TO4KO5p-t-67" value="" style="edgeStyle=orthogonalEdgeStyle;rounded=0;orthogonalLoop=1;jettySize=auto;html=1;" parent="WIyWlLk6GJQsqaUBKTNV-1" source="Iz3MCZ-JaH1TO4KO5p-t-65" target="Iz3MCZ-JaH1TO4KO5p-t-58" edge="1">
          <mxGeometry relative="1" as="geometry" />
        </mxCell>
        <mxCell id="Iz3MCZ-JaH1TO4KO5p-t-65" value="sendData&lt;br&gt;(selectedRow, selectedPlant)" style="shape=process;whiteSpace=wrap;html=1;backgroundOutline=1;rounded=1;strokeWidth=2;" parent="WIyWlLk6GJQsqaUBKTNV-1" vertex="1">
          <mxGeometry x="870" y="770" width="120" height="60" as="geometry" />
        </mxCell>
        <mxCell id="Iz3MCZ-JaH1TO4KO5p-t-73" value="" style="edgeStyle=orthogonalEdgeStyle;rounded=0;orthogonalLoop=1;jettySize=auto;html=1;" parent="WIyWlLk6GJQsqaUBKTNV-1" source="Iz3MCZ-JaH1TO4KO5p-t-69" target="Iz3MCZ-JaH1TO4KO5p-t-72" edge="1">
          <mxGeometry relative="1" as="geometry" />
        </mxCell>
        <mxCell id="Iz3MCZ-JaH1TO4KO5p-t-69" value="sendData&lt;br&gt;(selectedRow, selectedPlant)" style="shape=process;whiteSpace=wrap;html=1;backgroundOutline=1;rounded=1;strokeWidth=2;" parent="WIyWlLk6GJQsqaUBKTNV-1" vertex="1">
          <mxGeometry x="380" y="600" width="120" height="60" as="geometry" />
        </mxCell>
        <mxCell id="Iz3MCZ-JaH1TO4KO5p-t-77" value="" style="edgeStyle=orthogonalEdgeStyle;rounded=0;orthogonalLoop=1;jettySize=auto;html=1;" parent="WIyWlLk6GJQsqaUBKTNV-1" source="Iz3MCZ-JaH1TO4KO5p-t-70" target="Iz3MCZ-JaH1TO4KO5p-t-76" edge="1">
          <mxGeometry relative="1" as="geometry" />
        </mxCell>
        <mxCell id="Iz3MCZ-JaH1TO4KO5p-t-70" value="send data  to (selectedRow) via ESPNow" style="rounded=1;whiteSpace=wrap;html=1;strokeWidth=2;" parent="WIyWlLk6GJQsqaUBKTNV-1" vertex="1">
          <mxGeometry x="380" y="760" width="120" height="60" as="geometry" />
        </mxCell>
        <mxCell id="Iz3MCZ-JaH1TO4KO5p-t-74" value="" style="edgeStyle=orthogonalEdgeStyle;rounded=0;orthogonalLoop=1;jettySize=auto;html=1;" parent="WIyWlLk6GJQsqaUBKTNV-1" source="Iz3MCZ-JaH1TO4KO5p-t-72" target="Iz3MCZ-JaH1TO4KO5p-t-70" edge="1">
          <mxGeometry relative="1" as="geometry" />
        </mxCell>
        <mxCell id="Iz3MCZ-JaH1TO4KO5p-t-72" value="data = selectedPant" style="rounded=1;whiteSpace=wrap;html=1;strokeWidth=2;" parent="WIyWlLk6GJQsqaUBKTNV-1" vertex="1">
          <mxGeometry x="380" y="680" width="120" height="60" as="geometry" />
        </mxCell>
        <mxCell id="Iz3MCZ-JaH1TO4KO5p-t-79" value="" style="edgeStyle=orthogonalEdgeStyle;rounded=0;orthogonalLoop=1;jettySize=auto;html=1;" parent="WIyWlLk6GJQsqaUBKTNV-1" source="Iz3MCZ-JaH1TO4KO5p-t-76" target="Iz3MCZ-JaH1TO4KO5p-t-78" edge="1">
          <mxGeometry relative="1" as="geometry" />
        </mxCell>
        <mxCell id="Iz3MCZ-JaH1TO4KO5p-t-81" value="" style="edgeStyle=orthogonalEdgeStyle;rounded=0;orthogonalLoop=1;jettySize=auto;html=1;" parent="WIyWlLk6GJQsqaUBKTNV-1" source="Iz3MCZ-JaH1TO4KO5p-t-76" target="Iz3MCZ-JaH1TO4KO5p-t-80" edge="1">
          <mxGeometry relative="1" as="geometry" />
        </mxCell>
        <mxCell id="Iz3MCZ-JaH1TO4KO5p-t-76" value="is MQTT?" style="rhombus;whiteSpace=wrap;html=1;rounded=1;strokeWidth=2;" parent="WIyWlLk6GJQsqaUBKTNV-1" vertex="1">
          <mxGeometry x="400" y="840" width="80" height="80" as="geometry" />
        </mxCell>
        <mxCell id="Iz3MCZ-JaH1TO4KO5p-t-78" value="pass" style="strokeWidth=2;html=1;shape=mxgraph.flowchart.terminator;whiteSpace=wrap;" parent="WIyWlLk6GJQsqaUBKTNV-1" vertex="1">
          <mxGeometry x="390" y="960" width="100" height="60" as="geometry" />
        </mxCell>
        <mxCell id="Iz3MCZ-JaH1TO4KO5p-t-80" value="send data to (selectedRow) vie MQTT" style="whiteSpace=wrap;html=1;rounded=1;strokeWidth=2;" parent="WIyWlLk6GJQsqaUBKTNV-1" vertex="1">
          <mxGeometry x="540" y="850" width="120" height="60" as="geometry" />
        </mxCell>
        <mxCell id="Iz3MCZ-JaH1TO4KO5p-t-82" style="edgeStyle=orthogonalEdgeStyle;rounded=0;orthogonalLoop=1;jettySize=auto;html=1;entryX=1;entryY=0.5;entryDx=0;entryDy=0;entryPerimeter=0;" parent="WIyWlLk6GJQsqaUBKTNV-1" source="Iz3MCZ-JaH1TO4KO5p-t-80" target="Iz3MCZ-JaH1TO4KO5p-t-78" edge="1">
          <mxGeometry relative="1" as="geometry">
            <Array as="points">
              <mxPoint x="600" y="990" />
            </Array>
          </mxGeometry>
        </mxCell>
        <mxCell id="Iz3MCZ-JaH1TO4KO5p-t-88" value="" style="edgeStyle=orthogonalEdgeStyle;rounded=0;orthogonalLoop=1;jettySize=auto;html=1;" parent="WIyWlLk6GJQsqaUBKTNV-1" source="Iz3MCZ-JaH1TO4KO5p-t-84" target="Iz3MCZ-JaH1TO4KO5p-t-87" edge="1">
          <mxGeometry relative="1" as="geometry" />
        </mxCell>
        <mxCell id="Iz3MCZ-JaH1TO4KO5p-t-84" value="Options" style="shape=process;whiteSpace=wrap;html=1;backgroundOutline=1;rounded=1;strokeWidth=2;" parent="WIyWlLk6GJQsqaUBKTNV-1" vertex="1">
          <mxGeometry x="1060" y="20" width="120" height="60" as="geometry" />
        </mxCell>
        <mxCell id="Iz3MCZ-JaH1TO4KO5p-t-90" value="no" style="edgeStyle=orthogonalEdgeStyle;rounded=0;orthogonalLoop=1;jettySize=auto;html=1;" parent="WIyWlLk6GJQsqaUBKTNV-1" source="Iz3MCZ-JaH1TO4KO5p-t-87" target="Iz3MCZ-JaH1TO4KO5p-t-89" edge="1">
          <mxGeometry relative="1" as="geometry" />
        </mxCell>
        <mxCell id="Iz3MCZ-JaH1TO4KO5p-t-96" value="yes" style="edgeStyle=orthogonalEdgeStyle;rounded=0;orthogonalLoop=1;jettySize=auto;html=1;" parent="WIyWlLk6GJQsqaUBKTNV-1" source="Iz3MCZ-JaH1TO4KO5p-t-87" target="Iz3MCZ-JaH1TO4KO5p-t-95" edge="1">
          <mxGeometry relative="1" as="geometry" />
        </mxCell>
        <mxCell id="Iz3MCZ-JaH1TO4KO5p-t-87" value="is LEVEL 1" style="rhombus;whiteSpace=wrap;html=1;rounded=1;strokeWidth=2;" parent="WIyWlLk6GJQsqaUBKTNV-1" vertex="1">
          <mxGeometry x="1080" y="100" width="80" height="80" as="geometry" />
        </mxCell>
        <mxCell id="Iz3MCZ-JaH1TO4KO5p-t-92" value="no" style="edgeStyle=orthogonalEdgeStyle;rounded=0;orthogonalLoop=1;jettySize=auto;html=1;" parent="WIyWlLk6GJQsqaUBKTNV-1" source="Iz3MCZ-JaH1TO4KO5p-t-89" target="Iz3MCZ-JaH1TO4KO5p-t-91" edge="1">
          <mxGeometry relative="1" as="geometry" />
        </mxCell>
        <mxCell id="Iz3MCZ-JaH1TO4KO5p-t-115" value="" style="edgeStyle=orthogonalEdgeStyle;rounded=0;orthogonalLoop=1;jettySize=auto;html=1;" parent="WIyWlLk6GJQsqaUBKTNV-1" source="Iz3MCZ-JaH1TO4KO5p-t-89" target="Iz3MCZ-JaH1TO4KO5p-t-114" edge="1">
          <mxGeometry relative="1" as="geometry" />
        </mxCell>
        <mxCell id="Iz3MCZ-JaH1TO4KO5p-t-89" value="Is LEVEL 2" style="rhombus;whiteSpace=wrap;html=1;rounded=1;strokeWidth=2;" parent="WIyWlLk6GJQsqaUBKTNV-1" vertex="1">
          <mxGeometry x="1080" y="315" width="80" height="80" as="geometry" />
        </mxCell>
        <mxCell id="Iz3MCZ-JaH1TO4KO5p-t-94" value="no" style="edgeStyle=orthogonalEdgeStyle;rounded=0;orthogonalLoop=1;jettySize=auto;html=1;" parent="WIyWlLk6GJQsqaUBKTNV-1" source="Iz3MCZ-JaH1TO4KO5p-t-91" target="Iz3MCZ-JaH1TO4KO5p-t-93" edge="1">
          <mxGeometry relative="1" as="geometry" />
        </mxCell>
        <mxCell id="Iz3MCZ-JaH1TO4KO5p-t-121" value="" style="edgeStyle=orthogonalEdgeStyle;rounded=0;orthogonalLoop=1;jettySize=auto;html=1;" parent="WIyWlLk6GJQsqaUBKTNV-1" source="Iz3MCZ-JaH1TO4KO5p-t-91" target="Iz3MCZ-JaH1TO4KO5p-t-120" edge="1">
          <mxGeometry relative="1" as="geometry" />
        </mxCell>
        <mxCell id="Iz3MCZ-JaH1TO4KO5p-t-91" value="Is LEVEL 3" style="rhombus;whiteSpace=wrap;html=1;rounded=1;strokeWidth=2;" parent="WIyWlLk6GJQsqaUBKTNV-1" vertex="1">
          <mxGeometry x="1080" y="415" width="80" height="80" as="geometry" />
        </mxCell>
        <mxCell id="Iz3MCZ-JaH1TO4KO5p-t-110" value="" style="edgeStyle=orthogonalEdgeStyle;rounded=0;orthogonalLoop=1;jettySize=auto;html=1;" parent="WIyWlLk6GJQsqaUBKTNV-1" source="Iz3MCZ-JaH1TO4KO5p-t-93" target="Iz3MCZ-JaH1TO4KO5p-t-109" edge="1">
          <mxGeometry relative="1" as="geometry" />
        </mxCell>
        <mxCell id="Iz3MCZ-JaH1TO4KO5p-t-128" value="" style="edgeStyle=orthogonalEdgeStyle;rounded=0;orthogonalLoop=1;jettySize=auto;html=1;" parent="WIyWlLk6GJQsqaUBKTNV-1" source="Iz3MCZ-JaH1TO4KO5p-t-93" target="Iz3MCZ-JaH1TO4KO5p-t-127" edge="1">
          <mxGeometry relative="1" as="geometry" />
        </mxCell>
        <mxCell id="Iz3MCZ-JaH1TO4KO5p-t-93" value="Is LEVEL 4" style="rhombus;whiteSpace=wrap;html=1;rounded=1;strokeWidth=2;" parent="WIyWlLk6GJQsqaUBKTNV-1" vertex="1">
          <mxGeometry x="1080" y="510" width="80" height="80" as="geometry" />
        </mxCell>
        <mxCell id="Iz3MCZ-JaH1TO4KO5p-t-98" value="yes" style="edgeStyle=orthogonalEdgeStyle;rounded=0;orthogonalLoop=1;jettySize=auto;html=1;" parent="WIyWlLk6GJQsqaUBKTNV-1" source="Iz3MCZ-JaH1TO4KO5p-t-95" target="Iz3MCZ-JaH1TO4KO5p-t-97" edge="1">
          <mxGeometry relative="1" as="geometry" />
        </mxCell>
        <mxCell id="Iz3MCZ-JaH1TO4KO5p-t-100" value="" style="edgeStyle=orthogonalEdgeStyle;rounded=0;orthogonalLoop=1;jettySize=auto;html=1;" parent="WIyWlLk6GJQsqaUBKTNV-1" source="Iz3MCZ-JaH1TO4KO5p-t-95" target="Iz3MCZ-JaH1TO4KO5p-t-99" edge="1">
          <mxGeometry relative="1" as="geometry" />
        </mxCell>
        <mxCell id="Iz3MCZ-JaH1TO4KO5p-t-95" value="is angle &amp;lt; 60" style="rhombus;whiteSpace=wrap;html=1;rounded=1;strokeWidth=2;" parent="WIyWlLk6GJQsqaUBKTNV-1" vertex="1">
          <mxGeometry x="1240" y="100" width="80" height="80" as="geometry" />
        </mxCell>
        <mxCell id="Iz3MCZ-JaH1TO4KO5p-t-113" style="edgeStyle=orthogonalEdgeStyle;rounded=0;orthogonalLoop=1;jettySize=auto;html=1;" parent="WIyWlLk6GJQsqaUBKTNV-1" edge="1">
          <mxGeometry relative="1" as="geometry">
            <mxPoint x="1440" y="300" as="targetPoint" />
            <mxPoint x="1280" y="270" as="sourcePoint" />
            <Array as="points">
              <mxPoint x="1280" y="300" />
            </Array>
          </mxGeometry>
        </mxCell>
        <mxCell id="Iz3MCZ-JaH1TO4KO5p-t-97" value="set rotaterow true" style="rounded=1;whiteSpace=wrap;html=1;strokeWidth=2;" parent="WIyWlLk6GJQsqaUBKTNV-1" vertex="1">
          <mxGeometry x="1220" y="210" width="120" height="60" as="geometry" />
        </mxCell>
        <mxCell id="Iz3MCZ-JaH1TO4KO5p-t-104" value="ys" style="edgeStyle=orthogonalEdgeStyle;rounded=0;orthogonalLoop=1;jettySize=auto;html=1;" parent="WIyWlLk6GJQsqaUBKTNV-1" source="Iz3MCZ-JaH1TO4KO5p-t-99" target="Iz3MCZ-JaH1TO4KO5p-t-103" edge="1">
          <mxGeometry relative="1" as="geometry" />
        </mxCell>
        <mxCell id="Iz3MCZ-JaH1TO4KO5p-t-108" value="yes" style="edgeStyle=orthogonalEdgeStyle;rounded=0;orthogonalLoop=1;jettySize=auto;html=1;" parent="WIyWlLk6GJQsqaUBKTNV-1" source="Iz3MCZ-JaH1TO4KO5p-t-99" target="Iz3MCZ-JaH1TO4KO5p-t-107" edge="1">
          <mxGeometry relative="1" as="geometry" />
        </mxCell>
        <mxCell id="Iz3MCZ-JaH1TO4KO5p-t-99" value="is angle &amp;lt; 120" style="rhombus;whiteSpace=wrap;html=1;rounded=1;strokeWidth=2;" parent="WIyWlLk6GJQsqaUBKTNV-1" vertex="1">
          <mxGeometry x="1400" y="100" width="80" height="80" as="geometry" />
        </mxCell>
        <mxCell id="Iz3MCZ-JaH1TO4KO5p-t-112" style="edgeStyle=orthogonalEdgeStyle;rounded=0;orthogonalLoop=1;jettySize=auto;html=1;" parent="WIyWlLk6GJQsqaUBKTNV-1" source="Iz3MCZ-JaH1TO4KO5p-t-103" edge="1">
          <mxGeometry relative="1" as="geometry">
            <mxPoint x="1580" y="300" as="targetPoint" />
            <Array as="points">
              <mxPoint x="1440" y="300" />
            </Array>
          </mxGeometry>
        </mxCell>
        <mxCell id="Iz3MCZ-JaH1TO4KO5p-t-103" value="&lt;div&gt;set rotaterow false&lt;/div&gt;&lt;div&gt;set selectedRow = 1&lt;/div&gt;" style="whiteSpace=wrap;html=1;rounded=1;strokeWidth=2;" parent="WIyWlLk6GJQsqaUBKTNV-1" vertex="1">
          <mxGeometry x="1380" y="210" width="120" height="60" as="geometry" />
        </mxCell>
        <mxCell id="Iz3MCZ-JaH1TO4KO5p-t-107" value="&lt;div&gt;set rotaterow false&lt;/div&gt;&lt;div&gt;set selectedRow = 2&lt;/div&gt;" style="whiteSpace=wrap;html=1;rounded=1;strokeWidth=2;" parent="WIyWlLk6GJQsqaUBKTNV-1" vertex="1">
          <mxGeometry x="1520" y="210" width="120" height="60" as="geometry" />
        </mxCell>
        <mxCell id="Iz3MCZ-JaH1TO4KO5p-t-109" value="pass" style="strokeWidth=2;html=1;shape=mxgraph.flowchart.terminator;whiteSpace=wrap;" parent="WIyWlLk6GJQsqaUBKTNV-1" vertex="1">
          <mxGeometry x="1070" y="645" width="100" height="60" as="geometry" />
        </mxCell>
        <mxCell id="Iz3MCZ-JaH1TO4KO5p-t-111" style="edgeStyle=orthogonalEdgeStyle;rounded=0;orthogonalLoop=1;jettySize=auto;html=1;entryX=1;entryY=0.5;entryDx=0;entryDy=0;entryPerimeter=0;" parent="WIyWlLk6GJQsqaUBKTNV-1" source="Iz3MCZ-JaH1TO4KO5p-t-107" target="Iz3MCZ-JaH1TO4KO5p-t-109" edge="1">
          <mxGeometry relative="1" as="geometry">
            <Array as="points">
              <mxPoint x="1580" y="670" />
              <mxPoint x="1170" y="670" />
            </Array>
          </mxGeometry>
        </mxCell>
        <mxCell id="Iz3MCZ-JaH1TO4KO5p-t-117" value="" style="edgeStyle=orthogonalEdgeStyle;rounded=0;orthogonalLoop=1;jettySize=auto;html=1;" parent="WIyWlLk6GJQsqaUBKTNV-1" source="Iz3MCZ-JaH1TO4KO5p-t-114" target="Iz3MCZ-JaH1TO4KO5p-t-116" edge="1">
          <mxGeometry relative="1" as="geometry" />
        </mxCell>
        <mxCell id="Iz3MCZ-JaH1TO4KO5p-t-114" value="&lt;div&gt;Scroll throught&lt;/div&gt;&lt;div&gt;to select plant&lt;/div&gt;" style="rhombus;whiteSpace=wrap;html=1;rounded=1;strokeWidth=2;" parent="WIyWlLk6GJQsqaUBKTNV-1" vertex="1">
          <mxGeometry x="1225" y="310" width="110" height="90" as="geometry" />
        </mxCell>
        <mxCell id="Iz3MCZ-JaH1TO4KO5p-t-118" style="edgeStyle=orthogonalEdgeStyle;rounded=0;orthogonalLoop=1;jettySize=auto;html=1;" parent="WIyWlLk6GJQsqaUBKTNV-1" source="Iz3MCZ-JaH1TO4KO5p-t-116" edge="1">
          <mxGeometry relative="1" as="geometry">
            <mxPoint x="1580" y="355" as="targetPoint" />
          </mxGeometry>
        </mxCell>
        <mxCell id="Iz3MCZ-JaH1TO4KO5p-t-116" value="highlight selected plant and set selectedPlant to it" style="whiteSpace=wrap;html=1;rounded=1;strokeWidth=2;" parent="WIyWlLk6GJQsqaUBKTNV-1" vertex="1">
          <mxGeometry x="1410" y="325" width="120" height="60" as="geometry" />
        </mxCell>
        <mxCell id="Iz3MCZ-JaH1TO4KO5p-t-123" value="" style="edgeStyle=orthogonalEdgeStyle;rounded=0;orthogonalLoop=1;jettySize=auto;html=1;" parent="WIyWlLk6GJQsqaUBKTNV-1" source="Iz3MCZ-JaH1TO4KO5p-t-120" target="Iz3MCZ-JaH1TO4KO5p-t-122" edge="1">
          <mxGeometry relative="1" as="geometry" />
        </mxCell>
        <mxCell id="Iz3MCZ-JaH1TO4KO5p-t-120" value="&lt;div&gt;Scroll throught&lt;/div&gt;&lt;div&gt;to select param&lt;/div&gt;" style="rhombus;whiteSpace=wrap;html=1;rounded=1;strokeWidth=2;" parent="WIyWlLk6GJQsqaUBKTNV-1" vertex="1">
          <mxGeometry x="1225" y="410" width="110" height="90" as="geometry" />
        </mxCell>
        <mxCell id="Iz3MCZ-JaH1TO4KO5p-t-124" style="edgeStyle=orthogonalEdgeStyle;rounded=0;orthogonalLoop=1;jettySize=auto;html=1;" parent="WIyWlLk6GJQsqaUBKTNV-1" source="Iz3MCZ-JaH1TO4KO5p-t-122" edge="1">
          <mxGeometry relative="1" as="geometry">
            <mxPoint x="1580" y="455.0000000000001" as="targetPoint" />
          </mxGeometry>
        </mxCell>
        <mxCell id="Iz3MCZ-JaH1TO4KO5p-t-122" value="show selected param and its value on screen and set selectedParam to it" style="whiteSpace=wrap;html=1;rounded=1;strokeWidth=2;" parent="WIyWlLk6GJQsqaUBKTNV-1" vertex="1">
          <mxGeometry x="1410" y="425" width="120" height="60" as="geometry" />
        </mxCell>
        <mxCell id="Iz3MCZ-JaH1TO4KO5p-t-129" style="edgeStyle=orthogonalEdgeStyle;rounded=0;orthogonalLoop=1;jettySize=auto;html=1;" parent="WIyWlLk6GJQsqaUBKTNV-1" source="Iz3MCZ-JaH1TO4KO5p-t-127" edge="1">
          <mxGeometry relative="1" as="geometry">
            <mxPoint x="1580" y="555" as="targetPoint" />
          </mxGeometry>
        </mxCell>
        <mxCell id="Iz3MCZ-JaH1TO4KO5p-t-127" value="set the param(and show on scree) to a vlaue set controlled by angle" style="whiteSpace=wrap;html=1;rounded=1;strokeWidth=2;" parent="WIyWlLk6GJQsqaUBKTNV-1" vertex="1">
          <mxGeometry x="1220" y="525" width="120" height="60" as="geometry" />
        </mxCell>
        <mxCell id="JbwMrnyFtsRmbbGRuUL1-16" value="" style="edgeStyle=orthogonalEdgeStyle;rounded=0;orthogonalLoop=1;jettySize=auto;html=1;" parent="WIyWlLk6GJQsqaUBKTNV-1" source="JbwMrnyFtsRmbbGRuUL1-14" target="JbwMrnyFtsRmbbGRuUL1-15" edge="1">
          <mxGeometry relative="1" as="geometry" />
        </mxCell>
        <mxCell id="JbwMrnyFtsRmbbGRuUL1-14" value="Button B Pressed" style="shape=process;whiteSpace=wrap;html=1;backgroundOutline=1;rounded=1;strokeWidth=2;" parent="WIyWlLk6GJQsqaUBKTNV-1" vertex="1">
          <mxGeometry x="1060" y="770" width="120" height="60" as="geometry" />
        </mxCell>
        <mxCell id="JbwMrnyFtsRmbbGRuUL1-20" value="yes" style="edgeStyle=orthogonalEdgeStyle;rounded=0;orthogonalLoop=1;jettySize=auto;html=1;" parent="WIyWlLk6GJQsqaUBKTNV-1" source="JbwMrnyFtsRmbbGRuUL1-15" target="JbwMrnyFtsRmbbGRuUL1-19" edge="1">
          <mxGeometry relative="1" as="geometry" />
        </mxCell>
        <mxCell id="JbwMrnyFtsRmbbGRuUL1-22" value="no" style="edgeStyle=orthogonalEdgeStyle;rounded=0;orthogonalLoop=1;jettySize=auto;html=1;" parent="WIyWlLk6GJQsqaUBKTNV-1" source="JbwMrnyFtsRmbbGRuUL1-15" target="JbwMrnyFtsRmbbGRuUL1-21" edge="1">
          <mxGeometry relative="1" as="geometry" />
        </mxCell>
        <mxCell id="JbwMrnyFtsRmbbGRuUL1-15" value="is LEVEL = 5" style="rhombus;whiteSpace=wrap;html=1;rounded=1;strokeWidth=2;" parent="WIyWlLk6GJQsqaUBKTNV-1" vertex="1">
          <mxGeometry x="1070" y="860" width="100" height="80" as="geometry" />
        </mxCell>
        <mxCell id="JbwMrnyFtsRmbbGRuUL1-19" value="set Clicked to false" style="whiteSpace=wrap;html=1;rounded=1;strokeWidth=2;" parent="WIyWlLk6GJQsqaUBKTNV-1" vertex="1">
          <mxGeometry x="1215" y="870" width="120" height="60" as="geometry" />
        </mxCell>
        <mxCell id="JbwMrnyFtsRmbbGRuUL1-21" value="pass" style="strokeWidth=2;html=1;shape=mxgraph.flowchart.terminator;whiteSpace=wrap;" parent="WIyWlLk6GJQsqaUBKTNV-1" vertex="1">
          <mxGeometry x="1070" y="980" width="100" height="60" as="geometry" />
        </mxCell>
        <mxCell id="JbwMrnyFtsRmbbGRuUL1-23" style="edgeStyle=orthogonalEdgeStyle;rounded=0;orthogonalLoop=1;jettySize=auto;html=1;entryX=1;entryY=0.5;entryDx=0;entryDy=0;entryPerimeter=0;" parent="WIyWlLk6GJQsqaUBKTNV-1" source="JbwMrnyFtsRmbbGRuUL1-19" target="JbwMrnyFtsRmbbGRuUL1-21" edge="1">
          <mxGeometry relative="1" as="geometry">
            <Array as="points">
              <mxPoint x="1275" y="1010" />
            </Array>
          </mxGeometry>
        </mxCell>
        <mxCell id="JbwMrnyFtsRmbbGRuUL1-43" value="" style="edgeStyle=orthogonalEdgeStyle;rounded=0;orthogonalLoop=1;jettySize=auto;html=1;" parent="WIyWlLk6GJQsqaUBKTNV-1" source="JbwMrnyFtsRmbbGRuUL1-44" target="JbwMrnyFtsRmbbGRuUL1-46" edge="1">
          <mxGeometry relative="1" as="geometry" />
        </mxCell>
        <mxCell id="JbwMrnyFtsRmbbGRuUL1-44" value="Button C Pressed" style="shape=process;whiteSpace=wrap;html=1;backgroundOutline=1;rounded=1;strokeWidth=2;" parent="WIyWlLk6GJQsqaUBKTNV-1" vertex="1">
          <mxGeometry x="1764" y="45" width="120" height="60" as="geometry" />
        </mxCell>
        <mxCell id="JbwMrnyFtsRmbbGRuUL1-45" value="" style="edgeStyle=orthogonalEdgeStyle;rounded=0;orthogonalLoop=1;jettySize=auto;html=1;" parent="WIyWlLk6GJQsqaUBKTNV-1" source="JbwMrnyFtsRmbbGRuUL1-46" target="JbwMrnyFtsRmbbGRuUL1-49" edge="1">
          <mxGeometry relative="1" as="geometry" />
        </mxCell>
        <mxCell id="JbwMrnyFtsRmbbGRuUL1-46" value="decrement LEVEL by 1" style="whiteSpace=wrap;html=1;rounded=1;strokeWidth=2;" parent="WIyWlLk6GJQsqaUBKTNV-1" vertex="1">
          <mxGeometry x="1769" y="165" width="110" height="60" as="geometry" />
        </mxCell>
        <mxCell id="JbwMrnyFtsRmbbGRuUL1-47" value="no" style="edgeStyle=orthogonalEdgeStyle;rounded=0;orthogonalLoop=1;jettySize=auto;html=1;" parent="WIyWlLk6GJQsqaUBKTNV-1" source="JbwMrnyFtsRmbbGRuUL1-49" target="JbwMrnyFtsRmbbGRuUL1-50" edge="1">
          <mxGeometry relative="1" as="geometry" />
        </mxCell>
        <mxCell id="JbwMrnyFtsRmbbGRuUL1-48" value="yes" style="edgeStyle=orthogonalEdgeStyle;rounded=0;orthogonalLoop=1;jettySize=auto;html=1;" parent="WIyWlLk6GJQsqaUBKTNV-1" source="JbwMrnyFtsRmbbGRuUL1-49" target="JbwMrnyFtsRmbbGRuUL1-52" edge="1">
          <mxGeometry relative="1" as="geometry" />
        </mxCell>
        <mxCell id="JbwMrnyFtsRmbbGRuUL1-49" value="Is LEVEL &amp;lt; 0" style="rhombus;whiteSpace=wrap;html=1;rounded=1;strokeWidth=2;" parent="WIyWlLk6GJQsqaUBKTNV-1" vertex="1">
          <mxGeometry x="1779" y="255" width="90" height="80" as="geometry" />
        </mxCell>
        <mxCell id="JbwMrnyFtsRmbbGRuUL1-50" value="Set LEVEL to 0" style="whiteSpace=wrap;html=1;rounded=1;strokeWidth=2;" parent="WIyWlLk6GJQsqaUBKTNV-1" vertex="1">
          <mxGeometry x="1654" y="275" width="90" height="40" as="geometry" />
        </mxCell>
        <mxCell id="JbwMrnyFtsRmbbGRuUL1-51" value="" style="edgeStyle=orthogonalEdgeStyle;rounded=0;orthogonalLoop=1;jettySize=auto;html=1;" parent="WIyWlLk6GJQsqaUBKTNV-1" source="JbwMrnyFtsRmbbGRuUL1-52" target="JbwMrnyFtsRmbbGRuUL1-53" edge="1">
          <mxGeometry relative="1" as="geometry" />
        </mxCell>
        <mxCell id="JbwMrnyFtsRmbbGRuUL1-52" value="&lt;div&gt;Check LEVEL&lt;/div&gt;&lt;div&gt;and then hide and show relevant labels&lt;/div&gt;" style="rhombus;whiteSpace=wrap;html=1;rounded=1;strokeWidth=2;" parent="WIyWlLk6GJQsqaUBKTNV-1" vertex="1">
          <mxGeometry x="1754" y="365" width="140" height="120" as="geometry" />
        </mxCell>
        <mxCell id="JbwMrnyFtsRmbbGRuUL1-53" value="pass" style="strokeWidth=2;html=1;shape=mxgraph.flowchart.terminator;whiteSpace=wrap;" parent="WIyWlLk6GJQsqaUBKTNV-1" vertex="1">
          <mxGeometry x="1774" y="520" width="100" height="60" as="geometry" />
        </mxCell>
        <mxCell id="JbwMrnyFtsRmbbGRuUL1-54" style="edgeStyle=orthogonalEdgeStyle;rounded=0;orthogonalLoop=1;jettySize=auto;html=1;entryX=0;entryY=0.5;entryDx=0;entryDy=0;entryPerimeter=0;" parent="WIyWlLk6GJQsqaUBKTNV-1" source="JbwMrnyFtsRmbbGRuUL1-50" target="JbwMrnyFtsRmbbGRuUL1-53" edge="1">
          <mxGeometry relative="1" as="geometry">
            <Array as="points">
              <mxPoint x="1694" y="550" />
            </Array>
          </mxGeometry>
        </mxCell>
        <mxCell id="2-2SWezI3yNW1dYCPq3Q-30" value="" style="group" vertex="1" connectable="0" parent="WIyWlLk6GJQsqaUBKTNV-1">
          <mxGeometry x="820" y="32.5" width="240" height="535" as="geometry" />
        </mxCell>
        <mxCell id="2-2SWezI3yNW1dYCPq3Q-31" value="" style="edgeStyle=orthogonalEdgeStyle;rounded=0;orthogonalLoop=1;jettySize=auto;html=1;" edge="1" parent="2-2SWezI3yNW1dYCPq3Q-30" source="2-2SWezI3yNW1dYCPq3Q-32" target="2-2SWezI3yNW1dYCPq3Q-34">
          <mxGeometry relative="1" as="geometry" />
        </mxCell>
        <mxCell id="2-2SWezI3yNW1dYCPq3Q-32" value="Button A Pressed" style="shape=process;whiteSpace=wrap;html=1;backgroundOutline=1;rounded=1;strokeWidth=2;" vertex="1" parent="2-2SWezI3yNW1dYCPq3Q-30">
          <mxGeometry x="110" width="120" height="60" as="geometry" />
        </mxCell>
        <mxCell id="2-2SWezI3yNW1dYCPq3Q-33" value="" style="edgeStyle=orthogonalEdgeStyle;rounded=0;orthogonalLoop=1;jettySize=auto;html=1;" edge="1" parent="2-2SWezI3yNW1dYCPq3Q-30" source="2-2SWezI3yNW1dYCPq3Q-34" target="2-2SWezI3yNW1dYCPq3Q-37">
          <mxGeometry relative="1" as="geometry" />
        </mxCell>
        <mxCell id="2-2SWezI3yNW1dYCPq3Q-34" value="increment LEVEL by 1" style="whiteSpace=wrap;html=1;rounded=1;strokeWidth=2;" vertex="1" parent="2-2SWezI3yNW1dYCPq3Q-30">
          <mxGeometry x="115" y="120" width="110" height="60" as="geometry" />
        </mxCell>
        <mxCell id="2-2SWezI3yNW1dYCPq3Q-35" value="yes" style="edgeStyle=orthogonalEdgeStyle;rounded=0;orthogonalLoop=1;jettySize=auto;html=1;" edge="1" parent="2-2SWezI3yNW1dYCPq3Q-30" source="2-2SWezI3yNW1dYCPq3Q-37" target="2-2SWezI3yNW1dYCPq3Q-38">
          <mxGeometry relative="1" as="geometry" />
        </mxCell>
        <mxCell id="2-2SWezI3yNW1dYCPq3Q-36" value="no" style="edgeStyle=orthogonalEdgeStyle;rounded=0;orthogonalLoop=1;jettySize=auto;html=1;" edge="1" parent="2-2SWezI3yNW1dYCPq3Q-30" source="2-2SWezI3yNW1dYCPq3Q-37">
          <mxGeometry relative="1" as="geometry" />
        </mxCell>
        <mxCell id="2-2SWezI3yNW1dYCPq3Q-37" value="Is LEVEL &amp;gt; 5" style="rhombus;whiteSpace=wrap;html=1;rounded=1;strokeWidth=2;" vertex="1" parent="2-2SWezI3yNW1dYCPq3Q-30">
          <mxGeometry x="125" y="210" width="90" height="80" as="geometry" />
        </mxCell>
        <mxCell id="2-2SWezI3yNW1dYCPq3Q-38" value="Set LEVEL to 0" style="whiteSpace=wrap;html=1;rounded=1;strokeWidth=2;" vertex="1" parent="2-2SWezI3yNW1dYCPq3Q-30">
          <mxGeometry y="230" width="90" height="40" as="geometry" />
        </mxCell>
        <mxCell id="2-2SWezI3yNW1dYCPq3Q-39" value="" style="edgeStyle=orthogonalEdgeStyle;rounded=0;orthogonalLoop=1;jettySize=auto;html=1;" edge="1" parent="2-2SWezI3yNW1dYCPq3Q-30" target="2-2SWezI3yNW1dYCPq3Q-40">
          <mxGeometry relative="1" as="geometry" />
        </mxCell>
        <mxCell id="2-2SWezI3yNW1dYCPq3Q-40" value="pass" style="strokeWidth=2;html=1;shape=mxgraph.flowchart.terminator;whiteSpace=wrap;" vertex="1" parent="2-2SWezI3yNW1dYCPq3Q-30">
          <mxGeometry x="120" y="475" width="100" height="60" as="geometry" />
        </mxCell>
        <mxCell id="2-2SWezI3yNW1dYCPq3Q-41" style="edgeStyle=orthogonalEdgeStyle;rounded=0;orthogonalLoop=1;jettySize=auto;html=1;entryX=0;entryY=0.5;entryDx=0;entryDy=0;entryPerimeter=0;" edge="1" parent="2-2SWezI3yNW1dYCPq3Q-30" source="2-2SWezI3yNW1dYCPq3Q-38" target="2-2SWezI3yNW1dYCPq3Q-40">
          <mxGeometry relative="1" as="geometry">
            <Array as="points">
              <mxPoint x="40" y="505" />
            </Array>
          </mxGeometry>
        </mxCell>
        <mxCell id="2-2SWezI3yNW1dYCPq3Q-42" value="&lt;div&gt;Check LEVEL&lt;/div&gt;&lt;div&gt;and then hide and show relevant labels&lt;/div&gt;" style="rhombus;whiteSpace=wrap;html=1;rounded=1;strokeWidth=2;" vertex="1" parent="2-2SWezI3yNW1dYCPq3Q-30">
          <mxGeometry x="100" y="330" width="140" height="120" as="geometry" />
        </mxCell>
        <mxCell id="2-2SWezI3yNW1dYCPq3Q-43" style="edgeStyle=orthogonalEdgeStyle;rounded=0;orthogonalLoop=1;jettySize=auto;html=1;exitX=0.5;exitY=1;exitDx=0;exitDy=0;entryX=0.5;entryY=0;entryDx=0;entryDy=0;entryPerimeter=0;" edge="1" parent="2-2SWezI3yNW1dYCPq3Q-30" source="2-2SWezI3yNW1dYCPq3Q-42" target="2-2SWezI3yNW1dYCPq3Q-40">
          <mxGeometry relative="1" as="geometry" />
        </mxCell>
        <mxCell id="2-2SWezI3yNW1dYCPq3Q-44" value="no" style="edgeStyle=orthogonalEdgeStyle;rounded=0;orthogonalLoop=1;jettySize=auto;html=1;" edge="1" parent="WIyWlLk6GJQsqaUBKTNV-1" target="2-2SWezI3yNW1dYCPq3Q-42">
          <mxGeometry x="-0.5073" relative="1" as="geometry">
            <mxPoint x="990" y="322.5" as="sourcePoint" />
            <mxPoint x="740" y="352.5" as="targetPoint" />
            <mxPoint as="offset" />
          </mxGeometry>
        </mxCell>
      </root>
    </mxGraphModel>
  </diagram>
  <diagram name="whole" id="cYpkq9ENl9RL0iiU_1C8">
    <mxGraphModel grid="1" page="1" gridSize="10" guides="1" tooltips="1" connect="1" arrows="1" fold="1" pageScale="1" pageWidth="827" pageHeight="1169" math="0" shadow="0">
      <root>
        <mxCell id="EYy0UujzQKRnxK-3GbW3-0" />
        <mxCell id="EYy0UujzQKRnxK-3GbW3-1" parent="EYy0UujzQKRnxK-3GbW3-0" />
        <mxCell id="EYy0UujzQKRnxK-3GbW3-2" value="" style="edgeStyle=orthogonalEdgeStyle;rounded=0;orthogonalLoop=1;jettySize=auto;html=1;" edge="1" parent="EYy0UujzQKRnxK-3GbW3-1" source="EYy0UujzQKRnxK-3GbW3-3" target="EYy0UujzQKRnxK-3GbW3-7">
          <mxGeometry relative="1" as="geometry" />
        </mxCell>
        <mxCell id="EYy0UujzQKRnxK-3GbW3-3" value="import Libraries" style="rounded=1;whiteSpace=wrap;html=1;fontSize=12;glass=0;strokeWidth=1;shadow=0;" vertex="1" parent="EYy0UujzQKRnxK-3GbW3-1">
          <mxGeometry x="160" y="210" width="120" height="40" as="geometry" />
        </mxCell>
        <mxCell id="EYy0UujzQKRnxK-3GbW3-4" value="" style="edgeStyle=orthogonalEdgeStyle;rounded=0;orthogonalLoop=1;jettySize=auto;html=1;exitX=0.5;exitY=1;exitDx=0;exitDy=0;exitPerimeter=0;" edge="1" parent="EYy0UujzQKRnxK-3GbW3-1" source="EYy0UujzQKRnxK-3GbW3-5" target="EYy0UujzQKRnxK-3GbW3-9">
          <mxGeometry relative="1" as="geometry">
            <mxPoint x="414" y="120" as="sourcePoint" />
          </mxGeometry>
        </mxCell>
        <mxCell id="EYy0UujzQKRnxK-3GbW3-5" value="Start" style="strokeWidth=2;html=1;shape=mxgraph.flowchart.start_1;whiteSpace=wrap;" vertex="1" parent="EYy0UujzQKRnxK-3GbW3-1">
          <mxGeometry x="170" y="20" width="100" height="60" as="geometry" />
        </mxCell>
        <mxCell id="EYy0UujzQKRnxK-3GbW3-6" value="" style="edgeStyle=orthogonalEdgeStyle;rounded=0;orthogonalLoop=1;jettySize=auto;html=1;" edge="1" parent="EYy0UujzQKRnxK-3GbW3-1" source="EYy0UujzQKRnxK-3GbW3-7" target="EYy0UujzQKRnxK-3GbW3-12">
          <mxGeometry relative="1" as="geometry" />
        </mxCell>
        <mxCell id="EYy0UujzQKRnxK-3GbW3-7" value="set up labels" style="whiteSpace=wrap;html=1;rounded=1;glass=0;strokeWidth=1;shadow=0;" vertex="1" parent="EYy0UujzQKRnxK-3GbW3-1">
          <mxGeometry x="160" y="280" width="120" height="40" as="geometry" />
        </mxCell>
        <mxCell id="EYy0UujzQKRnxK-3GbW3-8" style="edgeStyle=orthogonalEdgeStyle;rounded=0;orthogonalLoop=1;jettySize=auto;html=1;entryX=0.5;entryY=0;entryDx=0;entryDy=0;" edge="1" parent="EYy0UujzQKRnxK-3GbW3-1" source="EYy0UujzQKRnxK-3GbW3-9" target="EYy0UujzQKRnxK-3GbW3-3">
          <mxGeometry relative="1" as="geometry" />
        </mxCell>
        <mxCell id="EYy0UujzQKRnxK-3GbW3-9" value="set MQTT to either True or False&lt;br&gt;(set if using mqtt)" style="rounded=1;whiteSpace=wrap;html=1;strokeWidth=2;" vertex="1" parent="EYy0UujzQKRnxK-3GbW3-1">
          <mxGeometry x="160" y="130" width="120" height="60" as="geometry" />
        </mxCell>
        <mxCell id="EYy0UujzQKRnxK-3GbW3-10" value="yes" style="edgeStyle=orthogonalEdgeStyle;rounded=0;orthogonalLoop=1;jettySize=auto;html=1;" edge="1" parent="EYy0UujzQKRnxK-3GbW3-1" source="EYy0UujzQKRnxK-3GbW3-12" target="EYy0UujzQKRnxK-3GbW3-14">
          <mxGeometry relative="1" as="geometry" />
        </mxCell>
        <mxCell id="EYy0UujzQKRnxK-3GbW3-11" value="no" style="edgeStyle=orthogonalEdgeStyle;rounded=0;orthogonalLoop=1;jettySize=auto;html=1;" edge="1" parent="EYy0UujzQKRnxK-3GbW3-1" source="EYy0UujzQKRnxK-3GbW3-12" target="EYy0UujzQKRnxK-3GbW3-18">
          <mxGeometry relative="1" as="geometry" />
        </mxCell>
        <mxCell id="EYy0UujzQKRnxK-3GbW3-12" value="Is MQTT?" style="strokeWidth=2;html=1;shape=mxgraph.flowchart.decision;whiteSpace=wrap;" vertex="1" parent="EYy0UujzQKRnxK-3GbW3-1">
          <mxGeometry x="170" y="360" width="100" height="100" as="geometry" />
        </mxCell>
        <mxCell id="EYy0UujzQKRnxK-3GbW3-13" value="" style="edgeStyle=orthogonalEdgeStyle;rounded=0;orthogonalLoop=1;jettySize=auto;html=1;" edge="1" parent="EYy0UujzQKRnxK-3GbW3-1" source="EYy0UujzQKRnxK-3GbW3-14" target="EYy0UujzQKRnxK-3GbW3-16">
          <mxGeometry relative="1" as="geometry" />
        </mxCell>
        <mxCell id="EYy0UujzQKRnxK-3GbW3-14" value="Setup Wifi" style="rounded=1;whiteSpace=wrap;html=1;strokeWidth=2;" vertex="1" parent="EYy0UujzQKRnxK-3GbW3-1">
          <mxGeometry x="340" y="380" width="120" height="60" as="geometry" />
        </mxCell>
        <mxCell id="EYy0UujzQKRnxK-3GbW3-15" value="" style="edgeStyle=orthogonalEdgeStyle;rounded=0;orthogonalLoop=1;jettySize=auto;html=1;" edge="1" parent="EYy0UujzQKRnxK-3GbW3-1" source="EYy0UujzQKRnxK-3GbW3-16" target="EYy0UujzQKRnxK-3GbW3-18">
          <mxGeometry relative="1" as="geometry" />
        </mxCell>
        <mxCell id="EYy0UujzQKRnxK-3GbW3-16" value="Set up MQTT" style="rounded=1;whiteSpace=wrap;html=1;strokeWidth=2;" vertex="1" parent="EYy0UujzQKRnxK-3GbW3-1">
          <mxGeometry x="340" y="520" width="120" height="60" as="geometry" />
        </mxCell>
        <mxCell id="EYy0UujzQKRnxK-3GbW3-17" value="" style="edgeStyle=orthogonalEdgeStyle;rounded=0;orthogonalLoop=1;jettySize=auto;html=1;" edge="1" parent="EYy0UujzQKRnxK-3GbW3-1" source="EYy0UujzQKRnxK-3GbW3-18" target="EYy0UujzQKRnxK-3GbW3-20">
          <mxGeometry relative="1" as="geometry" />
        </mxCell>
        <mxCell id="EYy0UujzQKRnxK-3GbW3-18" value="Set up ESPNow" style="rounded=1;whiteSpace=wrap;html=1;strokeWidth=2;" vertex="1" parent="EYy0UujzQKRnxK-3GbW3-1">
          <mxGeometry x="160" y="520" width="120" height="60" as="geometry" />
        </mxCell>
        <mxCell id="EYy0UujzQKRnxK-3GbW3-19" value="" style="edgeStyle=orthogonalEdgeStyle;rounded=0;orthogonalLoop=1;jettySize=auto;html=1;" edge="1" parent="EYy0UujzQKRnxK-3GbW3-1" source="EYy0UujzQKRnxK-3GbW3-20" target="EYy0UujzQKRnxK-3GbW3-22">
          <mxGeometry relative="1" as="geometry" />
        </mxCell>
        <mxCell id="EYy0UujzQKRnxK-3GbW3-20" value="set up button callbacks" style="rounded=1;whiteSpace=wrap;html=1;strokeWidth=2;" vertex="1" parent="EYy0UujzQKRnxK-3GbW3-1">
          <mxGeometry x="160" y="600" width="120" height="60" as="geometry" />
        </mxCell>
        <mxCell id="EYy0UujzQKRnxK-3GbW3-21" value="" style="edgeStyle=orthogonalEdgeStyle;rounded=0;orthogonalLoop=1;jettySize=auto;html=1;" edge="1" parent="EYy0UujzQKRnxK-3GbW3-1" source="EYy0UujzQKRnxK-3GbW3-22" target="EYy0UujzQKRnxK-3GbW3-24">
          <mxGeometry relative="1" as="geometry" />
        </mxCell>
        <mxCell id="EYy0UujzQKRnxK-3GbW3-22" value="start timer0 loop" style="shape=process;whiteSpace=wrap;html=1;backgroundOutline=1;rounded=1;strokeWidth=2;" vertex="1" parent="EYy0UujzQKRnxK-3GbW3-1">
          <mxGeometry x="160" y="680" width="120" height="60" as="geometry" />
        </mxCell>
        <mxCell id="EYy0UujzQKRnxK-3GbW3-23" value="" style="edgeStyle=orthogonalEdgeStyle;rounded=0;orthogonalLoop=1;jettySize=auto;html=1;" edge="1" parent="EYy0UujzQKRnxK-3GbW3-1" source="EYy0UujzQKRnxK-3GbW3-24" target="EYy0UujzQKRnxK-3GbW3-26">
          <mxGeometry relative="1" as="geometry" />
        </mxCell>
        <mxCell id="EYy0UujzQKRnxK-3GbW3-24" value="init angle unit" style="rounded=1;whiteSpace=wrap;html=1;strokeWidth=2;" vertex="1" parent="EYy0UujzQKRnxK-3GbW3-1">
          <mxGeometry x="160" y="760" width="120" height="60" as="geometry" />
        </mxCell>
        <mxCell id="EYy0UujzQKRnxK-3GbW3-25" value="" style="edgeStyle=orthogonalEdgeStyle;rounded=0;orthogonalLoop=1;jettySize=auto;html=1;" edge="1" parent="EYy0UujzQKRnxK-3GbW3-1" source="EYy0UujzQKRnxK-3GbW3-26" target="EYy0UujzQKRnxK-3GbW3-27">
          <mxGeometry relative="1" as="geometry" />
        </mxCell>
        <mxCell id="EYy0UujzQKRnxK-3GbW3-26" value="set main display screen" style="whiteSpace=wrap;html=1;rounded=1;strokeWidth=2;" vertex="1" parent="EYy0UujzQKRnxK-3GbW3-1">
          <mxGeometry x="160" y="840" width="120" height="60" as="geometry" />
        </mxCell>
        <mxCell id="EYy0UujzQKRnxK-3GbW3-27" value="start main loop" style="shape=process;whiteSpace=wrap;html=1;backgroundOutline=1;rounded=1;strokeWidth=2;" vertex="1" parent="EYy0UujzQKRnxK-3GbW3-1">
          <mxGeometry x="160" y="920" width="120" height="60" as="geometry" />
        </mxCell>
        <mxCell id="EYy0UujzQKRnxK-3GbW3-38" value="" style="edgeStyle=orthogonalEdgeStyle;rounded=0;orthogonalLoop=1;jettySize=auto;html=1;" edge="1" parent="EYy0UujzQKRnxK-3GbW3-1" source="EYy0UujzQKRnxK-3GbW3-39" target="EYy0UujzQKRnxK-3GbW3-42">
          <mxGeometry relative="1" as="geometry" />
        </mxCell>
        <mxCell id="EYy0UujzQKRnxK-3GbW3-39" value="timer0 loop" style="shape=process;whiteSpace=wrap;html=1;backgroundOutline=1;rounded=1;strokeWidth=2;" vertex="1" parent="EYy0UujzQKRnxK-3GbW3-1">
          <mxGeometry x="580" y="360" width="120" height="60" as="geometry" />
        </mxCell>
        <mxCell id="EYy0UujzQKRnxK-3GbW3-40" value="no" style="edgeStyle=orthogonalEdgeStyle;rounded=0;orthogonalLoop=1;jettySize=auto;html=1;" edge="1" parent="EYy0UujzQKRnxK-3GbW3-1" source="EYy0UujzQKRnxK-3GbW3-42" target="EYy0UujzQKRnxK-3GbW3-43">
          <mxGeometry relative="1" as="geometry" />
        </mxCell>
        <mxCell id="EYy0UujzQKRnxK-3GbW3-41" value="yes" style="edgeStyle=orthogonalEdgeStyle;rounded=0;orthogonalLoop=1;jettySize=auto;html=1;" edge="1" parent="EYy0UujzQKRnxK-3GbW3-1" source="EYy0UujzQKRnxK-3GbW3-42" target="EYy0UujzQKRnxK-3GbW3-46">
          <mxGeometry relative="1" as="geometry" />
        </mxCell>
        <mxCell id="EYy0UujzQKRnxK-3GbW3-42" value="is global var Clicked?" style="rhombus;whiteSpace=wrap;html=1;rounded=1;strokeWidth=2;" vertex="1" parent="EYy0UujzQKRnxK-3GbW3-1">
          <mxGeometry x="565" y="450" width="150" height="130" as="geometry" />
        </mxCell>
        <mxCell id="EYy0UujzQKRnxK-3GbW3-43" value="wait 100ms" style="whiteSpace=wrap;html=1;rounded=1;strokeWidth=2;" vertex="1" parent="EYy0UujzQKRnxK-3GbW3-1">
          <mxGeometry x="580" y="610" width="120" height="60" as="geometry" />
        </mxCell>
        <mxCell id="EYy0UujzQKRnxK-3GbW3-44" style="edgeStyle=orthogonalEdgeStyle;rounded=0;orthogonalLoop=1;jettySize=auto;html=1;entryX=0;entryY=0.5;entryDx=0;entryDy=0;" edge="1" parent="EYy0UujzQKRnxK-3GbW3-1" source="EYy0UujzQKRnxK-3GbW3-43" target="EYy0UujzQKRnxK-3GbW3-39">
          <mxGeometry relative="1" as="geometry">
            <mxPoint x="560" y="330" as="targetPoint" />
            <Array as="points">
              <mxPoint x="540" y="640" />
              <mxPoint x="540" y="390" />
            </Array>
          </mxGeometry>
        </mxCell>
        <mxCell id="EYy0UujzQKRnxK-3GbW3-45" value="" style="edgeStyle=orthogonalEdgeStyle;rounded=0;orthogonalLoop=1;jettySize=auto;html=1;" edge="1" parent="EYy0UujzQKRnxK-3GbW3-1" source="EYy0UujzQKRnxK-3GbW3-46" target="EYy0UujzQKRnxK-3GbW3-48">
          <mxGeometry relative="1" as="geometry" />
        </mxCell>
        <mxCell id="EYy0UujzQKRnxK-3GbW3-46" value="set Clicked to false" style="whiteSpace=wrap;html=1;rounded=1;strokeWidth=2;" vertex="1" parent="EYy0UujzQKRnxK-3GbW3-1">
          <mxGeometry x="790" y="485" width="120" height="60" as="geometry" />
        </mxCell>
        <mxCell id="EYy0UujzQKRnxK-3GbW3-47" value="" style="edgeStyle=orthogonalEdgeStyle;rounded=0;orthogonalLoop=1;jettySize=auto;html=1;" edge="1" parent="EYy0UujzQKRnxK-3GbW3-1" source="EYy0UujzQKRnxK-3GbW3-48" target="EYy0UujzQKRnxK-3GbW3-43">
          <mxGeometry relative="1" as="geometry" />
        </mxCell>
        <mxCell id="EYy0UujzQKRnxK-3GbW3-48" value="sendData&lt;br&gt;(selectedRow, selectedPlant)" style="shape=process;whiteSpace=wrap;html=1;backgroundOutline=1;rounded=1;strokeWidth=2;" vertex="1" parent="EYy0UujzQKRnxK-3GbW3-1">
          <mxGeometry x="790" y="610" width="120" height="60" as="geometry" />
        </mxCell>
      </root>
    </mxGraphModel>
  </diagram>
  <diagram id="nEB6H48gBJ4MxM-J7Haa" name="btns">
    <mxGraphModel dx="273" dy="650" grid="1" gridSize="10" guides="1" tooltips="1" connect="1" arrows="1" fold="1" page="1" pageScale="1" pageWidth="850" pageHeight="1100" math="0" shadow="0">
      <root>
        <mxCell id="0" />
        <mxCell id="1" parent="0" />
        <mxCell id="iv7_dVfbWIoKHtC-Dip1-1" value="" style="group" vertex="1" connectable="0" parent="1">
          <mxGeometry x="860" y="10" width="240" height="535" as="geometry" />
        </mxCell>
        <mxCell id="iv7_dVfbWIoKHtC-Dip1-2" value="" style="edgeStyle=orthogonalEdgeStyle;rounded=0;orthogonalLoop=1;jettySize=auto;html=1;" edge="1" parent="iv7_dVfbWIoKHtC-Dip1-1" source="iv7_dVfbWIoKHtC-Dip1-3" target="iv7_dVfbWIoKHtC-Dip1-5">
          <mxGeometry relative="1" as="geometry" />
        </mxCell>
        <mxCell id="iv7_dVfbWIoKHtC-Dip1-3" value="Button A Pressed" style="shape=process;whiteSpace=wrap;html=1;backgroundOutline=1;rounded=1;strokeWidth=2;" vertex="1" parent="iv7_dVfbWIoKHtC-Dip1-1">
          <mxGeometry x="110" width="120" height="60" as="geometry" />
        </mxCell>
        <mxCell id="iv7_dVfbWIoKHtC-Dip1-4" value="" style="edgeStyle=orthogonalEdgeStyle;rounded=0;orthogonalLoop=1;jettySize=auto;html=1;" edge="1" parent="iv7_dVfbWIoKHtC-Dip1-1" source="iv7_dVfbWIoKHtC-Dip1-5" target="iv7_dVfbWIoKHtC-Dip1-8">
          <mxGeometry relative="1" as="geometry" />
        </mxCell>
        <mxCell id="iv7_dVfbWIoKHtC-Dip1-5" value="increment LEVEL by 1" style="whiteSpace=wrap;html=1;rounded=1;strokeWidth=2;" vertex="1" parent="iv7_dVfbWIoKHtC-Dip1-1">
          <mxGeometry x="115" y="120" width="110" height="60" as="geometry" />
        </mxCell>
        <mxCell id="iv7_dVfbWIoKHtC-Dip1-6" value="yes" style="edgeStyle=orthogonalEdgeStyle;rounded=0;orthogonalLoop=1;jettySize=auto;html=1;" edge="1" parent="iv7_dVfbWIoKHtC-Dip1-1" source="iv7_dVfbWIoKHtC-Dip1-8" target="iv7_dVfbWIoKHtC-Dip1-9">
          <mxGeometry relative="1" as="geometry" />
        </mxCell>
        <mxCell id="iv7_dVfbWIoKHtC-Dip1-7" value="no" style="edgeStyle=orthogonalEdgeStyle;rounded=0;orthogonalLoop=1;jettySize=auto;html=1;" edge="1" parent="iv7_dVfbWIoKHtC-Dip1-1" source="iv7_dVfbWIoKHtC-Dip1-8">
          <mxGeometry relative="1" as="geometry" />
        </mxCell>
        <mxCell id="iv7_dVfbWIoKHtC-Dip1-8" value="Is LEVEL &amp;gt; 5" style="rhombus;whiteSpace=wrap;html=1;rounded=1;strokeWidth=2;" vertex="1" parent="iv7_dVfbWIoKHtC-Dip1-1">
          <mxGeometry x="125" y="210" width="90" height="80" as="geometry" />
        </mxCell>
        <mxCell id="iv7_dVfbWIoKHtC-Dip1-9" value="Set LEVEL to 0" style="whiteSpace=wrap;html=1;rounded=1;strokeWidth=2;" vertex="1" parent="iv7_dVfbWIoKHtC-Dip1-1">
          <mxGeometry y="230" width="90" height="40" as="geometry" />
        </mxCell>
        <mxCell id="iv7_dVfbWIoKHtC-Dip1-10" value="" style="edgeStyle=orthogonalEdgeStyle;rounded=0;orthogonalLoop=1;jettySize=auto;html=1;" edge="1" parent="iv7_dVfbWIoKHtC-Dip1-1" target="iv7_dVfbWIoKHtC-Dip1-11">
          <mxGeometry relative="1" as="geometry" />
        </mxCell>
        <mxCell id="iv7_dVfbWIoKHtC-Dip1-11" value="pass" style="strokeWidth=2;html=1;shape=mxgraph.flowchart.terminator;whiteSpace=wrap;" vertex="1" parent="iv7_dVfbWIoKHtC-Dip1-1">
          <mxGeometry x="120" y="475" width="100" height="60" as="geometry" />
        </mxCell>
        <mxCell id="iv7_dVfbWIoKHtC-Dip1-12" style="edgeStyle=orthogonalEdgeStyle;rounded=0;orthogonalLoop=1;jettySize=auto;html=1;entryX=0;entryY=0.5;entryDx=0;entryDy=0;entryPerimeter=0;" edge="1" parent="iv7_dVfbWIoKHtC-Dip1-1" source="iv7_dVfbWIoKHtC-Dip1-9" target="iv7_dVfbWIoKHtC-Dip1-11">
          <mxGeometry relative="1" as="geometry">
            <Array as="points">
              <mxPoint x="40" y="505" />
            </Array>
          </mxGeometry>
        </mxCell>
        <mxCell id="Ayx0WFlJajt6EWGKfNBn-1" value="&lt;div&gt;Check LEVEL&lt;/div&gt;&lt;div&gt;and then hide and show relevant labels&lt;/div&gt;" style="rhombus;whiteSpace=wrap;html=1;rounded=1;strokeWidth=2;" vertex="1" parent="iv7_dVfbWIoKHtC-Dip1-1">
          <mxGeometry x="100" y="330" width="140" height="120" as="geometry" />
        </mxCell>
        <mxCell id="U6RrWwSxMBX7tp7iQ2JI-2" style="edgeStyle=orthogonalEdgeStyle;rounded=0;orthogonalLoop=1;jettySize=auto;html=1;exitX=0.5;exitY=1;exitDx=0;exitDy=0;entryX=0.5;entryY=0;entryDx=0;entryDy=0;entryPerimeter=0;" edge="1" parent="iv7_dVfbWIoKHtC-Dip1-1" source="Ayx0WFlJajt6EWGKfNBn-1" target="iv7_dVfbWIoKHtC-Dip1-11">
          <mxGeometry relative="1" as="geometry" />
        </mxCell>
        <mxCell id="2vtzsU09qZuw6v1mOIBM-1" value="no" style="edgeStyle=orthogonalEdgeStyle;rounded=0;orthogonalLoop=1;jettySize=auto;html=1;" edge="1" parent="1" target="Ayx0WFlJajt6EWGKfNBn-1">
          <mxGeometry x="-0.5073" relative="1" as="geometry">
            <mxPoint x="1030" y="300" as="sourcePoint" />
            <mxPoint x="780" y="330" as="targetPoint" />
            <mxPoint as="offset" />
          </mxGeometry>
        </mxCell>
        <mxCell id="VXhNEwIzotKeCvnrJrca-1" value="" style="edgeStyle=orthogonalEdgeStyle;rounded=0;orthogonalLoop=1;jettySize=auto;html=1;" edge="1" parent="1" source="VXhNEwIzotKeCvnrJrca-2" target="VXhNEwIzotKeCvnrJrca-5">
          <mxGeometry relative="1" as="geometry" />
        </mxCell>
        <mxCell id="VXhNEwIzotKeCvnrJrca-2" value="Button B Pressed" style="shape=process;whiteSpace=wrap;html=1;backgroundOutline=1;rounded=1;strokeWidth=2;" vertex="1" parent="1">
          <mxGeometry x="1138" y="10" width="120" height="60" as="geometry" />
        </mxCell>
        <mxCell id="VXhNEwIzotKeCvnrJrca-3" value="yes" style="edgeStyle=orthogonalEdgeStyle;rounded=0;orthogonalLoop=1;jettySize=auto;html=1;" edge="1" parent="1" source="VXhNEwIzotKeCvnrJrca-5" target="VXhNEwIzotKeCvnrJrca-6">
          <mxGeometry relative="1" as="geometry" />
        </mxCell>
        <mxCell id="VXhNEwIzotKeCvnrJrca-4" value="no" style="edgeStyle=orthogonalEdgeStyle;rounded=0;orthogonalLoop=1;jettySize=auto;html=1;" edge="1" parent="1" source="VXhNEwIzotKeCvnrJrca-5" target="VXhNEwIzotKeCvnrJrca-7">
          <mxGeometry relative="1" as="geometry" />
        </mxCell>
        <mxCell id="VXhNEwIzotKeCvnrJrca-5" value="is LEVEL = 5" style="rhombus;whiteSpace=wrap;html=1;rounded=1;strokeWidth=2;" vertex="1" parent="1">
          <mxGeometry x="1148" y="100" width="100" height="80" as="geometry" />
        </mxCell>
        <mxCell id="VXhNEwIzotKeCvnrJrca-6" value="set Clicked to false" style="whiteSpace=wrap;html=1;rounded=1;strokeWidth=2;" vertex="1" parent="1">
          <mxGeometry x="1293" y="110" width="120" height="60" as="geometry" />
        </mxCell>
        <mxCell id="VXhNEwIzotKeCvnrJrca-7" value="pass" style="strokeWidth=2;html=1;shape=mxgraph.flowchart.terminator;whiteSpace=wrap;" vertex="1" parent="1">
          <mxGeometry x="1148" y="220" width="100" height="60" as="geometry" />
        </mxCell>
        <mxCell id="VXhNEwIzotKeCvnrJrca-8" style="edgeStyle=orthogonalEdgeStyle;rounded=0;orthogonalLoop=1;jettySize=auto;html=1;entryX=1;entryY=0.5;entryDx=0;entryDy=0;entryPerimeter=0;" edge="1" parent="1" source="VXhNEwIzotKeCvnrJrca-6" target="VXhNEwIzotKeCvnrJrca-7">
          <mxGeometry relative="1" as="geometry">
            <Array as="points">
              <mxPoint x="1353" y="250" />
            </Array>
          </mxGeometry>
        </mxCell>
        <mxCell id="iGke8yWM_6UcnaH3VHWl-1" value="" style="edgeStyle=orthogonalEdgeStyle;rounded=0;orthogonalLoop=1;jettySize=auto;html=1;" edge="1" parent="1" source="iGke8yWM_6UcnaH3VHWl-2" target="iGke8yWM_6UcnaH3VHWl-6">
          <mxGeometry relative="1" as="geometry" />
        </mxCell>
        <mxCell id="iGke8yWM_6UcnaH3VHWl-2" value="sendData&lt;br&gt;(selectedRow, selectedPlant)" style="shape=process;whiteSpace=wrap;html=1;backgroundOutline=1;rounded=1;strokeWidth=2;" vertex="1" parent="1">
          <mxGeometry x="1148" y="300" width="120" height="60" as="geometry" />
        </mxCell>
        <mxCell id="iGke8yWM_6UcnaH3VHWl-3" value="" style="edgeStyle=orthogonalEdgeStyle;rounded=0;orthogonalLoop=1;jettySize=auto;html=1;" edge="1" parent="1" source="iGke8yWM_6UcnaH3VHWl-4" target="iGke8yWM_6UcnaH3VHWl-9">
          <mxGeometry relative="1" as="geometry" />
        </mxCell>
        <mxCell id="iGke8yWM_6UcnaH3VHWl-4" value="send data  to (selectedRow) via ESPNow" style="rounded=1;whiteSpace=wrap;html=1;strokeWidth=2;" vertex="1" parent="1">
          <mxGeometry x="1148" y="460" width="120" height="60" as="geometry" />
        </mxCell>
        <mxCell id="iGke8yWM_6UcnaH3VHWl-5" value="" style="edgeStyle=orthogonalEdgeStyle;rounded=0;orthogonalLoop=1;jettySize=auto;html=1;" edge="1" parent="1" source="iGke8yWM_6UcnaH3VHWl-6" target="iGke8yWM_6UcnaH3VHWl-4">
          <mxGeometry relative="1" as="geometry" />
        </mxCell>
        <mxCell id="iGke8yWM_6UcnaH3VHWl-6" value="data = selectedPant" style="rounded=1;whiteSpace=wrap;html=1;strokeWidth=2;" vertex="1" parent="1">
          <mxGeometry x="1148" y="380" width="120" height="60" as="geometry" />
        </mxCell>
        <mxCell id="iGke8yWM_6UcnaH3VHWl-7" value="" style="edgeStyle=orthogonalEdgeStyle;rounded=0;orthogonalLoop=1;jettySize=auto;html=1;" edge="1" parent="1" source="iGke8yWM_6UcnaH3VHWl-9" target="iGke8yWM_6UcnaH3VHWl-10">
          <mxGeometry relative="1" as="geometry" />
        </mxCell>
        <mxCell id="iGke8yWM_6UcnaH3VHWl-8" value="" style="edgeStyle=orthogonalEdgeStyle;rounded=0;orthogonalLoop=1;jettySize=auto;html=1;" edge="1" parent="1" source="iGke8yWM_6UcnaH3VHWl-9" target="iGke8yWM_6UcnaH3VHWl-11">
          <mxGeometry relative="1" as="geometry" />
        </mxCell>
        <mxCell id="iGke8yWM_6UcnaH3VHWl-9" value="is MQTT?" style="rhombus;whiteSpace=wrap;html=1;rounded=1;strokeWidth=2;" vertex="1" parent="1">
          <mxGeometry x="1168" y="540" width="80" height="80" as="geometry" />
        </mxCell>
        <mxCell id="iGke8yWM_6UcnaH3VHWl-10" value="pass" style="strokeWidth=2;html=1;shape=mxgraph.flowchart.terminator;whiteSpace=wrap;" vertex="1" parent="1">
          <mxGeometry x="1158" y="660" width="100" height="60" as="geometry" />
        </mxCell>
        <mxCell id="iGke8yWM_6UcnaH3VHWl-11" value="send data to (selectedRow) vie MQTT" style="whiteSpace=wrap;html=1;rounded=1;strokeWidth=2;" vertex="1" parent="1">
          <mxGeometry x="1308" y="550" width="120" height="60" as="geometry" />
        </mxCell>
        <mxCell id="iGke8yWM_6UcnaH3VHWl-12" style="edgeStyle=orthogonalEdgeStyle;rounded=0;orthogonalLoop=1;jettySize=auto;html=1;entryX=1;entryY=0.5;entryDx=0;entryDy=0;entryPerimeter=0;" edge="1" parent="1" source="iGke8yWM_6UcnaH3VHWl-11" target="iGke8yWM_6UcnaH3VHWl-10">
          <mxGeometry relative="1" as="geometry">
            <Array as="points">
              <mxPoint x="1368" y="690" />
            </Array>
          </mxGeometry>
        </mxCell>
        <mxCell id="-A0LJaZ7CpjpT8zrVILA-1" value="" style="edgeStyle=orthogonalEdgeStyle;rounded=0;orthogonalLoop=1;jettySize=auto;html=1;" edge="1" parent="1" source="-A0LJaZ7CpjpT8zrVILA-2" target="-A0LJaZ7CpjpT8zrVILA-4">
          <mxGeometry relative="1" as="geometry" />
        </mxCell>
        <mxCell id="-A0LJaZ7CpjpT8zrVILA-2" value="Button C Pressed" style="shape=process;whiteSpace=wrap;html=1;backgroundOutline=1;rounded=1;strokeWidth=2;" vertex="1" parent="1">
          <mxGeometry x="1500" y="10" width="120" height="60" as="geometry" />
        </mxCell>
        <mxCell id="-A0LJaZ7CpjpT8zrVILA-3" value="" style="edgeStyle=orthogonalEdgeStyle;rounded=0;orthogonalLoop=1;jettySize=auto;html=1;" edge="1" parent="1" source="-A0LJaZ7CpjpT8zrVILA-4" target="-A0LJaZ7CpjpT8zrVILA-7">
          <mxGeometry relative="1" as="geometry" />
        </mxCell>
        <mxCell id="-A0LJaZ7CpjpT8zrVILA-4" value="decrement LEVEL by 1" style="whiteSpace=wrap;html=1;rounded=1;strokeWidth=2;" vertex="1" parent="1">
          <mxGeometry x="1505" y="130" width="110" height="60" as="geometry" />
        </mxCell>
        <mxCell id="-A0LJaZ7CpjpT8zrVILA-5" value="no" style="edgeStyle=orthogonalEdgeStyle;rounded=0;orthogonalLoop=1;jettySize=auto;html=1;" edge="1" parent="1" source="-A0LJaZ7CpjpT8zrVILA-7" target="-A0LJaZ7CpjpT8zrVILA-8">
          <mxGeometry relative="1" as="geometry" />
        </mxCell>
        <mxCell id="-A0LJaZ7CpjpT8zrVILA-6" value="yes" style="edgeStyle=orthogonalEdgeStyle;rounded=0;orthogonalLoop=1;jettySize=auto;html=1;" edge="1" parent="1" source="-A0LJaZ7CpjpT8zrVILA-7" target="-A0LJaZ7CpjpT8zrVILA-10">
          <mxGeometry relative="1" as="geometry" />
        </mxCell>
        <mxCell id="-A0LJaZ7CpjpT8zrVILA-7" value="Is LEVEL &amp;lt; 0" style="rhombus;whiteSpace=wrap;html=1;rounded=1;strokeWidth=2;" vertex="1" parent="1">
          <mxGeometry x="1515" y="220" width="90" height="80" as="geometry" />
        </mxCell>
        <mxCell id="-A0LJaZ7CpjpT8zrVILA-8" value="Set LEVEL to 0" style="whiteSpace=wrap;html=1;rounded=1;strokeWidth=2;" vertex="1" parent="1">
          <mxGeometry x="1390" y="240" width="90" height="40" as="geometry" />
        </mxCell>
        <mxCell id="-A0LJaZ7CpjpT8zrVILA-9" value="" style="edgeStyle=orthogonalEdgeStyle;rounded=0;orthogonalLoop=1;jettySize=auto;html=1;" edge="1" parent="1" source="-A0LJaZ7CpjpT8zrVILA-10" target="-A0LJaZ7CpjpT8zrVILA-11">
          <mxGeometry relative="1" as="geometry" />
        </mxCell>
        <mxCell id="-A0LJaZ7CpjpT8zrVILA-10" value="&lt;div&gt;Check LEVEL&lt;/div&gt;&lt;div&gt;and then hide and show relevant labels&lt;/div&gt;" style="rhombus;whiteSpace=wrap;html=1;rounded=1;strokeWidth=2;" vertex="1" parent="1">
          <mxGeometry x="1490" y="330" width="140" height="120" as="geometry" />
        </mxCell>
        <mxCell id="-A0LJaZ7CpjpT8zrVILA-11" value="pass" style="strokeWidth=2;html=1;shape=mxgraph.flowchart.terminator;whiteSpace=wrap;" vertex="1" parent="1">
          <mxGeometry x="1510" y="485" width="100" height="60" as="geometry" />
        </mxCell>
        <mxCell id="-A0LJaZ7CpjpT8zrVILA-12" style="edgeStyle=orthogonalEdgeStyle;rounded=0;orthogonalLoop=1;jettySize=auto;html=1;entryX=0;entryY=0.5;entryDx=0;entryDy=0;entryPerimeter=0;" edge="1" parent="1" source="-A0LJaZ7CpjpT8zrVILA-8" target="-A0LJaZ7CpjpT8zrVILA-11">
          <mxGeometry relative="1" as="geometry">
            <Array as="points">
              <mxPoint x="1430" y="515" />
            </Array>
          </mxGeometry>
        </mxCell>
      </root>
    </mxGraphModel>
  </diagram>
  <diagram id="JAjGVVVo3_46oenevZ6K" name="LEVEL">
    <mxGraphModel dx="1310" dy="758" grid="1" gridSize="10" guides="1" tooltips="1" connect="1" arrows="1" fold="1" page="1" pageScale="1" pageWidth="850" pageHeight="1100" math="0" shadow="0">
      <root>
        <mxCell id="0" />
        <mxCell id="1" parent="0" />
        <mxCell id="QQGG1lCYiMNPX0pe6Tk_-1" value="" style="edgeStyle=orthogonalEdgeStyle;rounded=0;orthogonalLoop=1;jettySize=auto;html=1;" edge="1" parent="1" source="QQGG1lCYiMNPX0pe6Tk_-2" target="QQGG1lCYiMNPX0pe6Tk_-4">
          <mxGeometry relative="1" as="geometry" />
        </mxCell>
        <mxCell id="QQGG1lCYiMNPX0pe6Tk_-2" value="main loop" style="shape=process;whiteSpace=wrap;html=1;backgroundOutline=1;rounded=1;strokeWidth=2;" vertex="1" parent="1">
          <mxGeometry x="40" y="150" width="120" height="60" as="geometry" />
        </mxCell>
        <mxCell id="QQGG1lCYiMNPX0pe6Tk_-3" value="" style="edgeStyle=orthogonalEdgeStyle;rounded=0;orthogonalLoop=1;jettySize=auto;html=1;" edge="1" parent="1" source="QQGG1lCYiMNPX0pe6Tk_-4" target="QQGG1lCYiMNPX0pe6Tk_-6">
          <mxGeometry relative="1" as="geometry" />
        </mxCell>
        <mxCell id="QQGG1lCYiMNPX0pe6Tk_-4" value="update display" style="rounded=1;whiteSpace=wrap;html=1;strokeWidth=2;" vertex="1" parent="1">
          <mxGeometry x="40" y="230" width="120" height="40" as="geometry" />
        </mxCell>
        <mxCell id="QQGG1lCYiMNPX0pe6Tk_-5" value="" style="edgeStyle=orthogonalEdgeStyle;rounded=0;orthogonalLoop=1;jettySize=auto;html=1;" edge="1" parent="1" source="QQGG1lCYiMNPX0pe6Tk_-6" target="QQGG1lCYiMNPX0pe6Tk_-8">
          <mxGeometry relative="1" as="geometry" />
        </mxCell>
        <mxCell id="QQGG1lCYiMNPX0pe6Tk_-6" value="get angleInput" style="shape=parallelogram;perimeter=parallelogramPerimeter;whiteSpace=wrap;html=1;fixedSize=1;rounded=1;strokeWidth=2;" vertex="1" parent="1">
          <mxGeometry x="40" y="300" width="120" height="60" as="geometry" />
        </mxCell>
        <mxCell id="QQGG1lCYiMNPX0pe6Tk_-7" value="" style="edgeStyle=orthogonalEdgeStyle;rounded=0;orthogonalLoop=1;jettySize=auto;html=1;" edge="1" parent="1" source="QQGG1lCYiMNPX0pe6Tk_-8" target="QQGG1lCYiMNPX0pe6Tk_-10">
          <mxGeometry relative="1" as="geometry" />
        </mxCell>
        <mxCell id="QQGG1lCYiMNPX0pe6Tk_-8" value="&lt;div&gt;set global var angle to angleInput/364 &lt;br&gt;&lt;/div&gt;&lt;div&gt;normalise to range 0-180&lt;/div&gt;" style="whiteSpace=wrap;html=1;rounded=1;strokeWidth=2;" vertex="1" parent="1">
          <mxGeometry x="40" y="380" width="120" height="60" as="geometry" />
        </mxCell>
        <mxCell id="QQGG1lCYiMNPX0pe6Tk_-9" style="edgeStyle=orthogonalEdgeStyle;rounded=0;orthogonalLoop=1;jettySize=auto;html=1;entryX=1;entryY=0.5;entryDx=0;entryDy=0;" edge="1" parent="1" source="QQGG1lCYiMNPX0pe6Tk_-10" target="QQGG1lCYiMNPX0pe6Tk_-2">
          <mxGeometry relative="1" as="geometry">
            <Array as="points">
              <mxPoint x="180" y="550" />
              <mxPoint x="180" y="180" />
            </Array>
          </mxGeometry>
        </mxCell>
        <mxCell id="QQGG1lCYiMNPX0pe6Tk_-10" value="options" style="shape=process;whiteSpace=wrap;html=1;backgroundOutline=1;rounded=1;strokeWidth=2;" vertex="1" parent="1">
          <mxGeometry x="40" y="520" width="120" height="60" as="geometry" />
        </mxCell>
        <mxCell id="MTrg1pbkXL-92Q8F2ZT5-1" value="" style="edgeStyle=orthogonalEdgeStyle;rounded=0;orthogonalLoop=1;jettySize=auto;html=1;" edge="1" parent="1" source="MTrg1pbkXL-92Q8F2ZT5-2" target="MTrg1pbkXL-92Q8F2ZT5-5">
          <mxGeometry relative="1" as="geometry" />
        </mxCell>
        <mxCell id="MTrg1pbkXL-92Q8F2ZT5-2" value="Options" style="shape=process;whiteSpace=wrap;html=1;backgroundOutline=1;rounded=1;strokeWidth=2;" vertex="1" parent="1">
          <mxGeometry x="220" y="20" width="120" height="60" as="geometry" />
        </mxCell>
        <mxCell id="MTrg1pbkXL-92Q8F2ZT5-3" value="no" style="edgeStyle=orthogonalEdgeStyle;rounded=0;orthogonalLoop=1;jettySize=auto;html=1;" edge="1" parent="1" source="MTrg1pbkXL-92Q8F2ZT5-5" target="MTrg1pbkXL-92Q8F2ZT5-8">
          <mxGeometry relative="1" as="geometry" />
        </mxCell>
        <mxCell id="MTrg1pbkXL-92Q8F2ZT5-4" value="yes" style="edgeStyle=orthogonalEdgeStyle;rounded=0;orthogonalLoop=1;jettySize=auto;html=1;" edge="1" parent="1" source="MTrg1pbkXL-92Q8F2ZT5-5" target="MTrg1pbkXL-92Q8F2ZT5-17">
          <mxGeometry relative="1" as="geometry" />
        </mxCell>
        <mxCell id="MTrg1pbkXL-92Q8F2ZT5-5" value="is LEVEL 1" style="rhombus;whiteSpace=wrap;html=1;rounded=1;strokeWidth=2;" vertex="1" parent="1">
          <mxGeometry x="240" y="100" width="80" height="80" as="geometry" />
        </mxCell>
        <mxCell id="MTrg1pbkXL-92Q8F2ZT5-6" value="no" style="edgeStyle=orthogonalEdgeStyle;rounded=0;orthogonalLoop=1;jettySize=auto;html=1;" edge="1" parent="1" source="MTrg1pbkXL-92Q8F2ZT5-8" target="MTrg1pbkXL-92Q8F2ZT5-11">
          <mxGeometry relative="1" as="geometry" />
        </mxCell>
        <mxCell id="MTrg1pbkXL-92Q8F2ZT5-7" value="" style="edgeStyle=orthogonalEdgeStyle;rounded=0;orthogonalLoop=1;jettySize=auto;html=1;" edge="1" parent="1" source="MTrg1pbkXL-92Q8F2ZT5-8" target="MTrg1pbkXL-92Q8F2ZT5-29">
          <mxGeometry relative="1" as="geometry" />
        </mxCell>
        <mxCell id="MTrg1pbkXL-92Q8F2ZT5-8" value="Is LEVEL 2" style="rhombus;whiteSpace=wrap;html=1;rounded=1;strokeWidth=2;" vertex="1" parent="1">
          <mxGeometry x="240" y="315" width="80" height="80" as="geometry" />
        </mxCell>
        <mxCell id="MTrg1pbkXL-92Q8F2ZT5-9" value="no" style="edgeStyle=orthogonalEdgeStyle;rounded=0;orthogonalLoop=1;jettySize=auto;html=1;" edge="1" parent="1" source="MTrg1pbkXL-92Q8F2ZT5-11" target="MTrg1pbkXL-92Q8F2ZT5-14">
          <mxGeometry relative="1" as="geometry" />
        </mxCell>
        <mxCell id="MTrg1pbkXL-92Q8F2ZT5-10" value="" style="edgeStyle=orthogonalEdgeStyle;rounded=0;orthogonalLoop=1;jettySize=auto;html=1;" edge="1" parent="1" source="MTrg1pbkXL-92Q8F2ZT5-11" target="MTrg1pbkXL-92Q8F2ZT5-33">
          <mxGeometry relative="1" as="geometry" />
        </mxCell>
        <mxCell id="MTrg1pbkXL-92Q8F2ZT5-11" value="Is LEVEL 3" style="rhombus;whiteSpace=wrap;html=1;rounded=1;strokeWidth=2;" vertex="1" parent="1">
          <mxGeometry x="240" y="415" width="80" height="80" as="geometry" />
        </mxCell>
        <mxCell id="MTrg1pbkXL-92Q8F2ZT5-12" value="" style="edgeStyle=orthogonalEdgeStyle;rounded=0;orthogonalLoop=1;jettySize=auto;html=1;" edge="1" parent="1" source="MTrg1pbkXL-92Q8F2ZT5-14" target="MTrg1pbkXL-92Q8F2ZT5-26">
          <mxGeometry relative="1" as="geometry" />
        </mxCell>
        <mxCell id="MTrg1pbkXL-92Q8F2ZT5-13" value="" style="edgeStyle=orthogonalEdgeStyle;rounded=0;orthogonalLoop=1;jettySize=auto;html=1;" edge="1" parent="1" source="MTrg1pbkXL-92Q8F2ZT5-14" target="MTrg1pbkXL-92Q8F2ZT5-37">
          <mxGeometry relative="1" as="geometry" />
        </mxCell>
        <mxCell id="MTrg1pbkXL-92Q8F2ZT5-14" value="Is LEVEL 4" style="rhombus;whiteSpace=wrap;html=1;rounded=1;strokeWidth=2;" vertex="1" parent="1">
          <mxGeometry x="240" y="510" width="80" height="80" as="geometry" />
        </mxCell>
        <mxCell id="MTrg1pbkXL-92Q8F2ZT5-15" value="yes" style="edgeStyle=orthogonalEdgeStyle;rounded=0;orthogonalLoop=1;jettySize=auto;html=1;" edge="1" parent="1" source="MTrg1pbkXL-92Q8F2ZT5-17" target="MTrg1pbkXL-92Q8F2ZT5-19">
          <mxGeometry relative="1" as="geometry" />
        </mxCell>
        <mxCell id="MTrg1pbkXL-92Q8F2ZT5-16" value="" style="edgeStyle=orthogonalEdgeStyle;rounded=0;orthogonalLoop=1;jettySize=auto;html=1;" edge="1" parent="1" source="MTrg1pbkXL-92Q8F2ZT5-17" target="MTrg1pbkXL-92Q8F2ZT5-22">
          <mxGeometry relative="1" as="geometry" />
        </mxCell>
        <mxCell id="MTrg1pbkXL-92Q8F2ZT5-17" value="is angle &amp;lt; 60" style="rhombus;whiteSpace=wrap;html=1;rounded=1;strokeWidth=2;" vertex="1" parent="1">
          <mxGeometry x="400" y="100" width="80" height="80" as="geometry" />
        </mxCell>
        <mxCell id="MTrg1pbkXL-92Q8F2ZT5-18" style="edgeStyle=orthogonalEdgeStyle;rounded=0;orthogonalLoop=1;jettySize=auto;html=1;" edge="1" parent="1">
          <mxGeometry relative="1" as="geometry">
            <mxPoint x="600" y="300" as="targetPoint" />
            <mxPoint x="440" y="270" as="sourcePoint" />
            <Array as="points">
              <mxPoint x="440" y="300" />
            </Array>
          </mxGeometry>
        </mxCell>
        <mxCell id="MTrg1pbkXL-92Q8F2ZT5-19" value="set rotaterow true" style="rounded=1;whiteSpace=wrap;html=1;strokeWidth=2;" vertex="1" parent="1">
          <mxGeometry x="380" y="210" width="120" height="60" as="geometry" />
        </mxCell>
        <mxCell id="MTrg1pbkXL-92Q8F2ZT5-20" value="ys" style="edgeStyle=orthogonalEdgeStyle;rounded=0;orthogonalLoop=1;jettySize=auto;html=1;" edge="1" parent="1" source="MTrg1pbkXL-92Q8F2ZT5-22" target="MTrg1pbkXL-92Q8F2ZT5-24">
          <mxGeometry relative="1" as="geometry" />
        </mxCell>
        <mxCell id="MTrg1pbkXL-92Q8F2ZT5-21" value="yes" style="edgeStyle=orthogonalEdgeStyle;rounded=0;orthogonalLoop=1;jettySize=auto;html=1;" edge="1" parent="1" source="MTrg1pbkXL-92Q8F2ZT5-22" target="MTrg1pbkXL-92Q8F2ZT5-25">
          <mxGeometry relative="1" as="geometry" />
        </mxCell>
        <mxCell id="MTrg1pbkXL-92Q8F2ZT5-22" value="is angle &amp;lt; 120" style="rhombus;whiteSpace=wrap;html=1;rounded=1;strokeWidth=2;" vertex="1" parent="1">
          <mxGeometry x="560" y="100" width="80" height="80" as="geometry" />
        </mxCell>
        <mxCell id="MTrg1pbkXL-92Q8F2ZT5-23" style="edgeStyle=orthogonalEdgeStyle;rounded=0;orthogonalLoop=1;jettySize=auto;html=1;" edge="1" parent="1" source="MTrg1pbkXL-92Q8F2ZT5-24">
          <mxGeometry relative="1" as="geometry">
            <mxPoint x="740" y="300" as="targetPoint" />
            <Array as="points">
              <mxPoint x="600" y="300" />
            </Array>
          </mxGeometry>
        </mxCell>
        <mxCell id="MTrg1pbkXL-92Q8F2ZT5-24" value="&lt;div&gt;set rotaterow false&lt;/div&gt;&lt;div&gt;set selectedRow = 1&lt;/div&gt;" style="whiteSpace=wrap;html=1;rounded=1;strokeWidth=2;" vertex="1" parent="1">
          <mxGeometry x="540" y="210" width="120" height="60" as="geometry" />
        </mxCell>
        <mxCell id="MTrg1pbkXL-92Q8F2ZT5-25" value="&lt;div&gt;set rotaterow false&lt;/div&gt;&lt;div&gt;set selectedRow = 2&lt;/div&gt;" style="whiteSpace=wrap;html=1;rounded=1;strokeWidth=2;" vertex="1" parent="1">
          <mxGeometry x="680" y="210" width="120" height="60" as="geometry" />
        </mxCell>
        <mxCell id="MTrg1pbkXL-92Q8F2ZT5-26" value="pass" style="strokeWidth=2;html=1;shape=mxgraph.flowchart.terminator;whiteSpace=wrap;" vertex="1" parent="1">
          <mxGeometry x="230" y="645" width="100" height="60" as="geometry" />
        </mxCell>
        <mxCell id="MTrg1pbkXL-92Q8F2ZT5-27" style="edgeStyle=orthogonalEdgeStyle;rounded=0;orthogonalLoop=1;jettySize=auto;html=1;entryX=1;entryY=0.5;entryDx=0;entryDy=0;entryPerimeter=0;" edge="1" parent="1" source="MTrg1pbkXL-92Q8F2ZT5-25" target="MTrg1pbkXL-92Q8F2ZT5-26">
          <mxGeometry relative="1" as="geometry">
            <Array as="points">
              <mxPoint x="740" y="670" />
              <mxPoint x="330" y="670" />
            </Array>
          </mxGeometry>
        </mxCell>
        <mxCell id="MTrg1pbkXL-92Q8F2ZT5-28" value="" style="edgeStyle=orthogonalEdgeStyle;rounded=0;orthogonalLoop=1;jettySize=auto;html=1;" edge="1" parent="1" source="MTrg1pbkXL-92Q8F2ZT5-29" target="MTrg1pbkXL-92Q8F2ZT5-31">
          <mxGeometry relative="1" as="geometry" />
        </mxCell>
        <mxCell id="MTrg1pbkXL-92Q8F2ZT5-29" value="&lt;div&gt;Scroll throught&lt;/div&gt;&lt;div&gt;to select plant&lt;/div&gt;" style="rhombus;whiteSpace=wrap;html=1;rounded=1;strokeWidth=2;" vertex="1" parent="1">
          <mxGeometry x="385" y="310" width="110" height="90" as="geometry" />
        </mxCell>
        <mxCell id="MTrg1pbkXL-92Q8F2ZT5-30" style="edgeStyle=orthogonalEdgeStyle;rounded=0;orthogonalLoop=1;jettySize=auto;html=1;" edge="1" parent="1" source="MTrg1pbkXL-92Q8F2ZT5-31">
          <mxGeometry relative="1" as="geometry">
            <mxPoint x="740" y="355" as="targetPoint" />
          </mxGeometry>
        </mxCell>
        <mxCell id="MTrg1pbkXL-92Q8F2ZT5-31" value="highlight selected plant and set selectedPlant to it" style="whiteSpace=wrap;html=1;rounded=1;strokeWidth=2;" vertex="1" parent="1">
          <mxGeometry x="570" y="325" width="120" height="60" as="geometry" />
        </mxCell>
        <mxCell id="MTrg1pbkXL-92Q8F2ZT5-32" value="" style="edgeStyle=orthogonalEdgeStyle;rounded=0;orthogonalLoop=1;jettySize=auto;html=1;" edge="1" parent="1" source="MTrg1pbkXL-92Q8F2ZT5-33" target="MTrg1pbkXL-92Q8F2ZT5-35">
          <mxGeometry relative="1" as="geometry" />
        </mxCell>
        <mxCell id="MTrg1pbkXL-92Q8F2ZT5-33" value="&lt;div&gt;Scroll throught&lt;/div&gt;&lt;div&gt;to select param&lt;/div&gt;" style="rhombus;whiteSpace=wrap;html=1;rounded=1;strokeWidth=2;" vertex="1" parent="1">
          <mxGeometry x="385" y="410" width="110" height="90" as="geometry" />
        </mxCell>
        <mxCell id="MTrg1pbkXL-92Q8F2ZT5-34" style="edgeStyle=orthogonalEdgeStyle;rounded=0;orthogonalLoop=1;jettySize=auto;html=1;" edge="1" parent="1" source="MTrg1pbkXL-92Q8F2ZT5-35">
          <mxGeometry relative="1" as="geometry">
            <mxPoint x="740" y="455.0000000000001" as="targetPoint" />
          </mxGeometry>
        </mxCell>
        <mxCell id="MTrg1pbkXL-92Q8F2ZT5-35" value="show selected param and its value on screen and set selectedParam to it" style="whiteSpace=wrap;html=1;rounded=1;strokeWidth=2;" vertex="1" parent="1">
          <mxGeometry x="570" y="425" width="120" height="60" as="geometry" />
        </mxCell>
        <mxCell id="MTrg1pbkXL-92Q8F2ZT5-36" style="edgeStyle=orthogonalEdgeStyle;rounded=0;orthogonalLoop=1;jettySize=auto;html=1;" edge="1" parent="1" source="MTrg1pbkXL-92Q8F2ZT5-37">
          <mxGeometry relative="1" as="geometry">
            <mxPoint x="740" y="555" as="targetPoint" />
          </mxGeometry>
        </mxCell>
        <mxCell id="MTrg1pbkXL-92Q8F2ZT5-37" value="set the param(and show on scree) to a vlaue set controlled by angle" style="whiteSpace=wrap;html=1;rounded=1;strokeWidth=2;" vertex="1" parent="1">
          <mxGeometry x="380" y="525" width="120" height="60" as="geometry" />
        </mxCell>
      </root>
    </mxGraphModel>
  </diagram>
</mxfile>
